<?xml version="1.0" encoding="UTF-8"?><svg id="Layer_1" xmlns="http://www.w3.org/2000/svg" viewBox="0 0 29.21 29.32"><defs><style>.cls-1{fill:#f4ddb7;}.cls-1,.cls-2{stroke:#000;stroke-miterlimit:10;stroke-width:.31px;}.cls-2,.cls-3,.cls-4,.cls-5,.cls-6,.cls-7,.cls-8,.cls-9,.cls-10,.cls-11,.cls-12,.cls-13,.cls-14,.cls-15,.cls-16,.cls-17,.cls-18,.cls-19,.cls-20,.cls-21,.cls-22,.cls-23{fill-rule:evenodd;}.cls-2,.cls-24{fill:#ee2d2b;}.cls-3{fill:#020001;}.cls-3,.cls-4,.cls-5,.cls-6,.cls-7,.cls-8,.cls-9,.cls-10,.cls-11,.cls-12,.cls-13,.cls-14,.cls-15,.cls-16,.cls-17,.cls-18,.cls-19,.cls-20,.cls-21,.cls-22,.cls-25,.cls-26,.cls-24,.cls-23{stroke-width:0px;}.cls-4{fill:#643b3b;}.cls-5{fill:#28090c;}.cls-6{fill:#a77946;}.cls-7{fill:#bd9d78;}.cls-8{fill:#dac8b3;}.cls-9{fill:#dbe2f1;}.cls-10{fill:#edad3c;}.cls-11{fill:#fbf9f8;}.cls-12,.cls-26{fill:#fff;}.cls-13{fill:#f2c259;}.cls-14{fill:#655847;}.cls-15{fill:#b5844f;}.cls-16{fill:#8f785c;}.cls-17{fill:#905d5d;}.cls-18{fill:#a18563;}.cls-19{fill:#8c6438;}.cls-20{fill:#87643e;}.cls-21{fill:#f8df9c;}.cls-22{fill:#f6f2ee;}</style></defs><ellipse class="cls-24" cx="14.61" cy="14.66" rx="14.61" ry="14.66"/><ellipse class="cls-1" cx="14.61" cy="14.66" rx="14.02" ry="14.07"/><path class="cls-2" d="m4.69,13.67c.75-5.61,5.89-9.55,11.48-8.8,5.59.75,9.52,5.91,8.77,11.52-.75,5.61-5.89,9.55-11.48,8.8-5.59-.75-9.52-5.91-8.77-11.52Z"/><path class="cls-26" d="m2.2,13.1s-.1-.1-.18-.16c-.06-.05-.12-.1-.19-.15-.1-.08-.17-.16-.21-.24-.05-.1-.07-.23-.04-.37.05-.31.23-.52.54-.63.25-.09.54-.11.86-.06.29.04.54.16.77.34.28.22.39.47.35.74,0,.02-.03.08-.09.19-.04.07-.08.14-.11.2,0,.04.03.09.08.15-.15.1-.31.14-.49.12-.03,0-.1-.01-.2-.02-.05,0-.11,0-.2.04-.02-.08-.03-.16-.05-.23.07-.04.14-.06.19-.07.02,0,.09,0,.2-.01.09-.05.17-.1.26-.15.09-.05.14-.14.16-.26,0-.01-.02-.07-.06-.18-.05-.13-.08-.2-.09-.21-.11-.06-.24-.13-.41-.21-.2-.09-.34-.14-.43-.15-.16-.02-.31-.02-.44.02-.17.05-.3.08-.37.09-.11.12-.17.23-.18.32,0,.04.03.18.11.4.07.03.16.08.26.16.12.08.22.14.28.17l-.03.18-.06.05c-.06.01-.09.02-.1.02-.03,0-.08-.03-.12-.07Z"/><path class="cls-26" d="m2.2,15.13c-.06-.02-.15-.03-.26-.05-.16-.19-.25-.33-.3-.4-.08-.14-.11-.31-.11-.51,0-.05.07-.16.22-.33.14-.17.24-.26.29-.27.14-.03.23-.05.27-.05.02,0,.05,0,.07,0h.04s.04,0,.04,0c.04,0,.09-.01.13-.01.2,0,.36.09.49.27.12.17.18.35.17.56,0,.21-.08.4-.24.57-.16.17-.34.26-.54.26-.07,0-.15-.01-.26-.04Zm.82-.82c0-.16-.06-.3-.18-.42-.12-.11-.27-.17-.43-.17-.14,0-.28.06-.41.19-.14.13-.21.26-.21.4,0,.06.03.15.09.26.06.12.12.2.16.23.06.04.18.06.36.06.18,0,.32-.05.44-.14.12-.1.19-.24.19-.42Z"/><path class="cls-26" d="m2.75,16.45l-.06-.02.05-.04h-.53c-.18.01-.34.03-.49.05-.04-.09-.06-.15-.07-.17,0-.03,0-.07.01-.11.01-.05.03-.08.04-.1.03-.04.18-.1.46-.18.08-.02.21-.09.37-.2.04-.03.09-.05.15-.06.08-.01.16-.06.25-.14.02-.02.08-.09.2-.22.09.21.14.39.16.54.02.11,0,.19-.07.24.11.14.18.26.19.35,0,.04-.01.13-.05.25-.06,0-.09-.02-.11-.02-.04-.01-.07-.03-.09-.05-.03,0-.06.03-.08.07-.05.03-.16.06-.33.1-.13.03-.23.08-.32.14.19.07.4.08.63.04.04,0,.07-.02.11-.04,0-.01.04-.08.09-.2.05.03.1.05.15.06.07.26.11.41.11.43,0,.04-.02.14-.08.31-.06-.01-.11-.02-.17-.01-.02-.08-.02-.16,0-.22-.46-.07-.94-.09-1.45-.06-.04-.09-.06-.15-.07-.17-.02-.15.31-.33.98-.56Zm-.44-.32s.03.03.03.03c.05-.01.12,0,.2,0,.1.01.16.02.2.01.06,0,.12,0,.17.03l.21-.04v-.04s0-.03,0-.06c0-.03,0-.04,0-.06,0-.04-.03-.07-.08-.1-.07-.05-.12-.07-.15-.07-.04,0-.14.05-.29.13-.12.06-.21.11-.29.13v.02Z"/><path class="cls-26" d="m3.22,19.14s0-.07.02-.15c.08,0,.14,0,.18,0,.11-.04.16-.14.16-.31,0-.08-.03-.21-.08-.39-.03-.12-.1-.22-.21-.29l-.25.08c-.05.14-.05.29,0,.45.04.15.06.21.06.2.02.07.02.14.02.21,0,.04-.04.13-.11.27-.07.14-.11.21-.14.22-.13.04-.27.01-.42-.09-.15-.1-.24-.21-.28-.35-.02-.07-.04-.19-.07-.36-.02-.15-.05-.27-.08-.36.16-.16.3-.26.4-.29.03,0,.06,0,.11.01.02,0,.07.01.15,0-.04.11-.09.2-.16.26-.11.11-.17.18-.18.2,0,.12.01.21.03.27,0,.02.02.04.06.07.03.03.05.06.06.08,0,.02,0,.04,0,.07,0,.03,0,.06,0,.07,0,.03.08.09.21.16l.11-.04c.03-.07.05-.11.05-.12.02-.05.02-.09,0-.13,0-.02-.01-.04-.02-.07,0-.03-.02-.06-.02-.07-.06-.21-.07-.41-.03-.6.05-.23.17-.38.36-.44.03,0,.06-.02.11-.02.04.03.08.07.12.12.1,0,.19.07.27.18.06.09.11.19.15.31.02.07.03.23.03.49,0,0,0,.01,0,.02,0,0,.01,0,.02,0,.02,0,.04,0,.06,0l.05.16-.02.09c-.05.02-.15.06-.28.12-.09.04-.17.1-.24.18-.11-.07-.17-.14-.19-.2Z"/><path class="cls-26" d="m4.52,20.27l.02-.02.07.04v.05s-.09-.02-.09-.02l.05-.07.04.1s-.02,0-.04,0l-.11.15-.07-.1c.07-.02.17-.07.33-.14.14-.06.25-.11.32-.14.06.05.12.09.2.13l.2.12s.08.05.09.08c.06.11.1.22.1.32,0,.04,0,.15-.01.33-.14.13-.25.22-.32.26-.15-.06-.24-.12-.29-.21-.01-.02-.02-.07-.04-.15.03-.02.1-.04.19-.07.08-.03.15-.06.19-.08.02,0,.03-.02.05-.04-.05-.02-.11-.08-.19-.18-.08-.1-.14-.16-.18-.17-.08-.03-.18-.02-.29.05-.07.05-.09.1-.06.16,0,.01.02.04.04.06.02.03.03.05.04.06,0,0,.01.04.02.08l-.04.13c-.12-.05-.2-.09-.22-.13-.02-.04-.04-.09-.05-.15h-.04s-.06.01-.07.01l-.85.53c.03.08.06.15.09.22.04.07.09.15.16.24l-.18.11c-.12-.06-.19-.1-.21-.13-.02-.04-.03-.09-.01-.14-.08-.11-.19-.3-.35-.59-.03-.06,0-.16.09-.28l.12.03c.02.13.04.22.06.26,0,0,.03.02.06.05h.07s.87-.54.87-.54c-.01-.06-.03-.12-.07-.19.05.09.02.03-.1-.18h.02s-.02-.02-.02-.02c.03-.01.04-.02.05-.02.02-.01.06-.05.11-.12.07.09.14.18.21.28Z"/><path class="cls-26" d="m5.32,23.22c-.06.03-.14.07-.24.13-.24-.05-.4-.08-.48-.12-.15-.06-.28-.17-.39-.32-.03-.04-.04-.17-.02-.4.01-.23.03-.36.06-.4.09-.12.15-.19.18-.21.02-.02.04-.03.06-.05l.03-.03.04-.02s.06-.07.1-.09c.15-.13.34-.17.55-.11.19.05.35.16.47.32.12.16.17.36.15.6-.03.24-.12.42-.28.55-.05.04-.13.09-.23.14Zm.16-1.17c-.1-.13-.23-.19-.39-.2-.17,0-.31.04-.44.15-.11.09-.18.23-.22.42-.03.19-.01.34.07.45.03.04.11.09.23.14.12.05.21.07.26.07.07,0,.17-.07.32-.19.14-.12.23-.25.26-.39.04-.16,0-.31-.1-.45Z"/><path class="cls-26" d="m6.3,23.29h-.02s.02-.08.02-.09c-.02-.02-.07-.06-.14-.09-.07-.04-.12-.07-.14-.1-.03-.04-.03-.08,0-.12,0,0,.04-.04.1-.09.05-.04.11-.03.19.05.03.03.08.08.15.17.04.06.09.12.13.19,0,.05-.01.1-.02.15,0,.06,0,.1.04.14.01.02.04.02.07.02.02,0,.05-.02.07-.03.13.07.23.16.31.26.03.03.05.1.08.2-.04.07-.05.16-.05.27-.02.02-.05.05-.07.1-.03.05-.05.08-.07.09-.04.04-.1.04-.19.02-.06-.02-.12-.04-.18-.08l.1-.05-.04.31-.11-.38c.06-.1.1-.16.11-.17.05-.04.13-.09.24-.14,0-.02,0-.03-.01-.04-.05-.06-.17-.11-.38-.15-.2-.03-.33-.03-.39.03l-.54.46s.05.05.07.08c.02.03.05.07.09.14.03.04.06.09.09.14-.02.04-.04.09-.06.16-.15-.09-.29-.21-.4-.35l-.33-.43s.02-.1.03-.14l.11-.09.09.12.16.21c.06-.03.11-.06.16-.11.12-.1.36-.32.72-.64Z"/><path class="cls-26" d="m9.18,26.27c-.05.03-.12.07-.21.12-.07.04-.13.09-.2.13-.11.07-.21.11-.29.12-.11.01-.23-.01-.35-.08-.25-.15-.37-.4-.36-.75.01-.28.1-.57.26-.86.14-.27.34-.48.59-.64.3-.2.56-.23.79-.09.02.01.06.06.13.15.05.06.09.12.14.18.04,0,.09,0,.16-.03.04.18.01.35-.08.52-.02.03-.05.09-.1.19-.02.04-.03.11-.04.21-.08-.01-.15-.02-.23-.03,0-.09,0-.16,0-.21,0-.02.03-.09.06-.2-.01-.1-.02-.2-.04-.31-.02-.1-.07-.18-.17-.24-.01,0-.07,0-.18,0-.14,0-.21.01-.22.01-.09.08-.21.19-.34.34-.15.16-.25.29-.29.37-.08.15-.13.29-.14.44-.02.19-.04.32-.06.39.07.15.14.24.22.29.03.02.17.03.4.03.05-.06.13-.12.24-.21.12-.09.2-.16.26-.21l.15.09.02.08c-.01.06-.02.1-.02.11-.02.03-.05.07-.11.1Z"/><path class="cls-26" d="m10.86,27.46s-.06.07-.11.13c-.04-.03-.07-.04-.1-.05l-.09-.03c-.1-.04-.18-.12-.23-.24-.16.04-.3.03-.43-.03-.16-.07-.27-.15-.34-.26-.08-.13-.09-.27-.03-.43.08-.2.24-.28.5-.26.1,0,.3.06.6.15,0-.02.02-.04.04-.07.02-.03.04-.06.04-.07.03-.07.03-.15,0-.23-.03-.08-.07-.13-.14-.16-.06-.02-.19-.05-.4-.07.03.05.06.12.06.21-.1.05-.16.08-.18.08-.06.01-.13,0-.2-.03-.04-.17-.05-.27-.03-.32.02-.06.09-.1.2-.14.1-.03.18-.04.25-.03.07,0,.17.04.3.09.11.05.19.09.24.13.07.06.11.14.12.24,0,.02,0,.13,0,.32-.05.05-.09.11-.12.19-.07.18-.11.32-.12.41-.05.05-.08.09-.09.13,0,.03,0,.06.01.1.02.04.04.06.06.07.03.01.1.02.22,0,0,.07,0,.11-.01.12,0,.01-.02.03-.03.05Zm-.49-.85c-.17-.06-.29-.1-.34-.11-.16-.03-.26.01-.3.12-.03.08-.03.16.02.24.04.07.1.12.18.15.03.01.18.03.44.06.08-.16.14-.29.19-.41-.05,0-.12-.03-.19-.05Z"/><path class="cls-26" d="m12.88,26.51l-.04.06-.1-.09c-.14.12-.21.21-.22.29l-.14.91s.11.06.18.1l-.03.22c-.1-.03-.19-.05-.27-.07-.08-.01-.17-.02-.26-.02-.02-.06-.06-.12-.12-.2.09-.03.17-.05.23-.08,0,0,.03-.16.09-.44.03-.16.06-.3.08-.42.02-.12.02-.21.01-.25-.01-.06-.07-.12-.15-.17-.06.05-.16.13-.29.23l-.15,1s.07.04.15.09l-.03.21-.3-.06c-.1-.02-.2-.03-.3-.03v-.08c0-.06.02-.09.04-.1.01-.01.04-.03.09-.05.07-.02.13-.06.19-.12l.15-1s-.11-.05-.25-.11l.03-.22c.13.02.21.03.25.04l.13.03s.1,0,.19-.02c.07-.01.13-.03.2-.04.01,0,.05.05.12.11.05.05.09.07.12.08.04,0,.1,0,.17-.03.08-.02.13-.03.17-.03.22.03.33.18.33.44,0,0,0,.11-.02.32,0,.1,0,.2.02.3h-.03s-.02.04-.02.04v.02s-.08.41-.08.41c.04.03.1.04.18.05l.05.06-.02.14c-.09.06-.16.09-.21.09-.05,0-.12-.03-.2-.07-.09-.04-.16-.07-.21-.08l.03-.22h.07s.03-.04.03-.04c.01-.09.04-.22.09-.4.05-.17.08-.3.09-.38.01-.08.01-.16,0-.22,0-.05-.04-.12-.07-.2Z"/><path class="cls-26" d="m14.91,27.94s-.09.11-.16.2c-.15.05-.29.07-.42.06-.19-.01-.31-.08-.35-.22-.02.03-.03.08-.03.15-.08.02-.13.03-.15.03-.04,0-.07-.02-.11-.07-.04-.04-.05-.08-.05-.12l.17-1.99-.04-.06s-.04.01-.08,0c-.06,0-.15-.02-.25-.04v-.19c.06,0,.13,0,.24,0,.09,0,.17,0,.23,0,.06,0,.13.01.21.03,0,.1-.02.23-.04.41-.04.04-.06.08-.06.1-.01.14.01.21.08.21.04,0,.1-.01.18-.04.08-.03.15-.05.19-.04.14,0,.28.06.39.16.12.1.2.22.24.37.01.05.02.12,0,.2,0,.04-.01.11-.02.21.02.04.04.09.06.15-.04.16-.11.31-.22.45Zm-.48-1.27c-.08,0-.14,0-.18.01-.04.01-.1.04-.16.09l-.06.18c-.02.06-.05.12-.08.16v.19s.03.1.04.16c0,.04,0,.1,0,.17,0,.01.02.05.06.11.04.06.06.1.06.11.13.04.21.06.23.06.08,0,.15-.02.23-.07,0,0,.07-.06.19-.17.02-.13.03-.25.04-.36.01-.2,0-.35-.04-.45-.05-.13-.17-.2-.34-.21Z"/><path class="cls-26" d="m16.94,27.31c-.01.07-.02.16-.03.28-.17.18-.29.3-.36.35-.13.1-.29.15-.47.17-.05,0-.15-.06-.33-.19-.17-.13-.27-.22-.28-.27-.04-.14-.06-.23-.07-.27,0-.03,0-.05,0-.08v-.04s0-.04,0-.04c-.01-.05-.02-.09-.02-.13-.01-.2.06-.38.23-.54.15-.14.32-.22.52-.24.2-.02.38.05.56.2.17.15.27.33.28.54,0,.07,0,.16-.02.27Zm-.84-.77c-.16.01-.28.09-.38.24-.1.14-.15.3-.13.46,0,.14.08.28.21.41.13.13.26.19.4.18.05,0,.14-.05.24-.12.11-.08.18-.14.21-.19.03-.06.05-.19.03-.38-.01-.19-.07-.33-.16-.44-.1-.12-.24-.17-.41-.15Z"/><path class="cls-26" d="m18.73,27.57c-.08.02-.14.03-.18.03-.05,0-.11-.03-.17-.08-.1.15-.23.25-.38.3-.1.03-.29-.02-.55-.15l-.07-.17-.09-.05s-.05-.14-.08-.29c-.03-.11-.05-.2-.06-.29.03-.09.06-.26.09-.51.21-.17.34-.27.38-.28.03,0,.11-.01.22,0,.05,0,.13,0,.24.02,0-.03-.02-.09-.03-.17l-.03-.14c-.02-.1-.05-.15-.08-.18-.03-.03-.09-.03-.18,0-.06.02-.14.06-.22.13l-.07-.26c.07-.01.16-.04.28-.07.11-.03.25-.08.41-.13l.5,2.01c.08,0,.2-.02.35-.02-.03.17-.12.27-.26.31Zm-.42-.65c-.02-.08-.03-.12-.04-.14.02.03.09.13.21.29l-.12-.35-.11.05s-.03-.09-.06-.14c-.03-.08-.06-.13-.07-.14-.22-.17-.37-.24-.45-.22-.08.02-.16.11-.23.26-.07.15-.1.26-.08.35.05.2.08.33.1.38.03.11.1.19.22.24.11.05.22.07.32.04.08-.02.14-.06.19-.12.02-.02.06-.09.11-.2-.01-.11,0-.19.02-.26v-.03Z"/><path class="cls-26" d="m20.71,26.83s-.08.01-.12-.01c-.06.02-.13.05-.2.08-.08.03-.2.09-.36.16-.16.08-.28.13-.36.16-.06.02-.11.03-.16.03-.02,0-.07-.02-.15-.04,0-.13.08-.22.22-.27,0,0,.04-.01.11-.03.04-.01.08-.03.11-.04l.08-.04c.01-.08,0-.16-.02-.23l-.29-.84s-.11-.01-.2.02c-.09.04-.21.1-.36.18-.02-.02-.06-.05-.12-.08,0-.09.02-.15.08-.18l.76-.3c0,.1.02.18.04.25.01.04.05.11.1.19.05.08.08.14.1.19,0,.03,0,.06-.02.11l.03.04s.02.04.03.06c0,.03.01.05,0,.06,0,.03.03.08.05.14.02.06.05.14.08.23.05.03.15.01.3-.05h.03c.09-.05.16-.07.2-.07.06,0,.11.03.13.09.04.11.02.17-.06.21Zm-.93-1.75s-.03.01-.05.02c-.02,0-.04.01-.05.02,0,0-.03.03-.05.08-.02.05-.05.07-.07.08-.02,0-.09,0-.21,0-.11,0-.18-.01-.22-.02-.03-.09-.04-.19-.02-.3.02-.12.08-.19.16-.23.08-.03.17-.03.25.02.09.05.14.12.18.21,0,.02.01.04.01.07.03,0,.06.01.1.01l-.06.09-.03-.09.1.02s-.03.02-.04.03Z"/><path class="cls-26" d="m22.21,25.6s.01.1.02.17c-.04.02-.08.03-.1.05l-.08.06c-.1.06-.2.06-.33.03-.08.15-.18.26-.3.33-.15.09-.29.13-.41.12-.15-.01-.26-.09-.34-.25-.09-.19-.05-.38.14-.57.07-.08.24-.21.51-.39,0-.02-.02-.04-.03-.08,0-.04-.02-.06-.03-.08-.03-.07-.09-.11-.17-.14-.08-.03-.15-.02-.21.01-.05.03-.16.12-.31.28.06,0,.13.03.19.08-.03.11-.05.18-.06.2-.03.06-.08.1-.15.15-.15-.07-.23-.13-.26-.18-.03-.05-.02-.14.03-.25.04-.1.09-.17.14-.22.05-.05.14-.11.26-.18.11-.06.19-.1.25-.11.09-.02.18,0,.26.05.02.01.09.08.23.2,0,.07.03.14.06.21.09.17.16.29.22.35,0,.07.01.12.03.16.01.02.04.04.08.05.04.01.07,0,.09,0,.03-.02.08-.07.15-.18.05.04.07.07.08.09,0,.01.01.03.02.06Zm-.94-.14c-.16.1-.26.17-.3.21-.12.11-.16.21-.11.31.04.08.1.12.19.13.07,0,.15,0,.23-.05.03-.02.14-.12.33-.31-.06-.16-.12-.3-.18-.41-.04.04-.1.08-.16.12Z"/><path class="cls-25" d="m2,12.95s-.1-.1-.18-.16c-.06-.05-.12-.1-.19-.15-.1-.08-.17-.16-.21-.24-.05-.1-.07-.23-.04-.37.05-.31.23-.52.54-.63.25-.09.54-.11.86-.06.29.04.54.16.77.34.28.22.39.47.35.74,0,.02-.03.08-.09.19-.04.07-.08.14-.11.2,0,.04.03.09.08.15-.15.1-.31.14-.49.12-.03,0-.1-.01-.2-.02-.05,0-.11,0-.2.04-.02-.08-.03-.16-.05-.23.07-.04.14-.06.19-.07.02,0,.09,0,.2-.01.09-.05.17-.1.26-.15.09-.05.14-.14.16-.26,0-.01-.02-.07-.06-.18-.05-.13-.08-.2-.09-.21-.11-.06-.24-.13-.41-.21-.2-.09-.34-.14-.43-.15-.16-.02-.31-.02-.44.02-.17.05-.3.08-.37.09-.11.12-.17.23-.18.32,0,.04.03.18.11.4.07.03.16.08.26.16.12.08.22.14.28.17l-.03.18-.06.05c-.06.01-.09.02-.1.02-.03,0-.08-.03-.12-.07Z"/><path class="cls-25" d="m2,14.98c-.06-.02-.15-.03-.26-.05-.16-.19-.25-.33-.3-.4-.08-.14-.11-.31-.11-.51,0-.05.07-.16.22-.33.14-.17.24-.26.29-.27.14-.03.23-.05.27-.05.02,0,.05,0,.07,0h.04s.04,0,.04,0c.04,0,.09-.01.13-.01.2,0,.36.09.49.27.12.17.18.35.17.56,0,.21-.09.4-.25.57-.16.17-.34.26-.54.26-.07,0-.15-.01-.26-.04Zm.82-.82c0-.16-.06-.3-.18-.42-.12-.11-.27-.17-.43-.17-.14,0-.28.06-.41.19-.14.13-.21.26-.21.4,0,.06.03.15.09.26.06.12.12.2.16.23.06.04.18.06.36.06.18,0,.32-.05.44-.14.12-.1.19-.24.19-.42Z"/><path class="cls-25" d="m2.55,16.29l-.06-.02.05-.04h-.53c-.18.01-.34.03-.49.05-.04-.09-.06-.15-.07-.17,0-.03,0-.07.01-.11.01-.05.03-.08.04-.11.03-.04.18-.1.46-.18.08-.02.21-.09.37-.2.04-.03.09-.05.15-.06.08-.01.16-.06.25-.14.02-.02.08-.09.2-.22.09.21.14.39.16.54.02.11,0,.19-.07.24.11.14.18.26.19.35,0,.04-.01.13-.05.25-.06,0-.09-.02-.11-.02-.04-.01-.07-.03-.09-.05-.03,0-.06.03-.08.07-.05.03-.16.06-.33.1-.13.03-.23.08-.32.14.19.07.4.08.63.04.04,0,.07-.02.11-.04,0-.01.04-.08.09-.2.05.03.1.05.15.06.07.26.11.41.11.43,0,.04-.02.14-.08.31-.06-.01-.11-.02-.17-.01-.02-.08-.02-.16,0-.22-.46-.07-.94-.09-1.45-.06-.04-.09-.06-.15-.07-.17-.02-.14.31-.33.98-.56Zm-.44-.32s.03.03.03.03c.05-.01.12,0,.2,0,.1.01.16.02.2.01.06,0,.12,0,.17.03l.21-.04v-.04s0-.03,0-.06c0-.03,0-.04,0-.06,0-.04-.03-.07-.08-.1-.07-.05-.12-.07-.15-.07-.04,0-.14.05-.29.13-.12.06-.21.11-.29.13v.02Z"/><path class="cls-25" d="m3.02,18.98s0-.07.02-.15c.08,0,.14,0,.18,0,.11-.04.16-.14.16-.31,0-.08-.03-.21-.08-.39-.03-.12-.1-.22-.21-.29l-.25.08c-.05.14-.05.29,0,.45.04.15.06.21.06.2.02.07.02.14.02.21,0,.04-.04.13-.11.27-.07.14-.11.21-.14.22-.13.04-.27.01-.42-.09-.15-.1-.24-.21-.28-.35-.02-.07-.04-.19-.07-.36-.02-.15-.05-.27-.08-.36.16-.16.3-.26.4-.29.03,0,.06,0,.11.01.02,0,.07.01.15,0-.04.11-.09.2-.16.26-.11.11-.17.18-.18.2,0,.12.01.21.03.27,0,.02.02.04.06.07.03.03.05.06.06.08,0,.02,0,.04,0,.08,0,.03,0,.06,0,.07,0,.03.08.09.21.16l.11-.04c.03-.07.05-.11.05-.12.02-.05.02-.09,0-.13,0-.02-.01-.04-.02-.07,0-.03-.02-.06-.02-.07-.06-.21-.07-.41-.03-.6.05-.23.17-.38.36-.44.03,0,.06-.02.11-.02.04.03.08.07.12.12.1,0,.19.07.27.18.06.09.11.19.15.31.02.07.03.23.03.49,0,0,0,.01,0,.02,0,0,.01,0,.02,0,.02,0,.04,0,.06,0l.05.16-.02.09c-.05.02-.15.06-.28.12-.09.04-.17.1-.24.18-.11-.07-.17-.14-.19-.2Z"/><path class="cls-25" d="m4.31,20.12l.02-.02.07.04v.05s-.09-.02-.09-.02l.05-.07.04.1s-.02,0-.03,0l-.11.15-.07-.1c.07-.02.18-.07.33-.14.14-.06.25-.11.32-.14.06.05.12.09.2.13l.2.12s.08.05.09.08c.06.11.1.22.1.32,0,.04,0,.15-.01.33-.14.13-.25.22-.32.26-.15-.06-.24-.12-.29-.21-.01-.02-.02-.07-.03-.15.03-.02.1-.04.19-.07.08-.03.15-.06.19-.08.02,0,.03-.02.05-.04-.05-.02-.11-.08-.19-.18-.08-.1-.14-.16-.18-.17-.08-.03-.18-.02-.29.06-.07.05-.09.1-.06.16,0,.01.02.04.04.06.02.03.03.05.04.06,0,0,.01.04.02.08l-.04.13c-.12-.05-.2-.09-.22-.13-.02-.04-.04-.09-.05-.15h-.04s-.06.01-.07.01l-.85.53c.03.08.06.15.09.22.04.07.09.15.16.24l-.18.11c-.12-.06-.19-.1-.21-.13-.02-.04-.03-.09-.01-.14-.08-.11-.19-.3-.35-.59-.03-.06,0-.16.09-.28l.12.03c.02.13.04.22.06.26,0,0,.03.02.06.05h.07s.87-.54.87-.54c-.01-.06-.03-.12-.07-.19.05.09.02.03-.1-.18h.02s-.02-.02-.02-.02c.03-.01.04-.02.05-.02.02-.01.06-.05.11-.12.07.09.14.18.21.28Z"/><path class="cls-25" d="m5.12,23.07c-.06.03-.14.07-.24.13-.24-.05-.4-.08-.48-.12-.15-.06-.28-.17-.39-.32-.03-.04-.04-.17-.02-.4.01-.23.03-.36.06-.4.09-.12.15-.19.18-.21.02-.02.04-.03.06-.05l.03-.03.04-.02s.06-.07.1-.09c.15-.13.34-.17.55-.11.19.05.35.16.47.32.12.16.17.36.15.6-.03.24-.12.42-.28.55-.05.04-.13.09-.23.14Zm.16-1.17c-.1-.13-.23-.19-.39-.2-.17,0-.31.04-.44.15-.11.09-.18.23-.22.42-.03.19-.01.34.07.45.03.04.11.09.23.14.12.05.21.07.26.07.07,0,.18-.07.32-.19.14-.12.23-.25.26-.39.04-.16,0-.31-.1-.45Z"/><path class="cls-25" d="m6.1,23.13h-.02s.02-.08.02-.09c-.02-.02-.07-.05-.14-.09-.07-.04-.12-.07-.14-.1-.03-.04-.03-.08,0-.12,0,0,.04-.04.1-.09.05-.04.11-.03.19.05.03.03.08.08.15.17.04.06.09.12.13.19,0,.05-.01.1-.02.15,0,.06,0,.1.04.14.01.02.04.02.07.02.02,0,.05-.02.07-.03.13.07.23.16.31.26.03.03.05.1.08.2-.04.07-.05.16-.05.27-.02.02-.05.05-.07.1-.03.05-.05.08-.07.09-.04.04-.1.04-.19.02-.06-.02-.12-.04-.18-.08l.1-.05-.04.31-.11-.38c.06-.1.1-.16.11-.17.05-.04.13-.09.24-.14,0-.02,0-.03-.02-.04-.05-.06-.17-.11-.38-.15-.2-.03-.33-.03-.39.03l-.54.46s.05.05.07.08c.02.03.05.07.09.14.03.04.06.09.09.14-.02.04-.04.09-.06.16-.15-.09-.29-.21-.4-.35l-.33-.43s.02-.1.03-.14l.11-.09.09.12.16.21c.06-.03.11-.06.16-.11.12-.1.36-.32.72-.64Z"/><path class="cls-25" d="m8.98,26.12c-.05.03-.12.07-.21.12-.07.04-.13.09-.2.13-.11.07-.21.11-.29.12-.11.02-.23-.01-.35-.08-.25-.15-.37-.4-.36-.75.01-.28.1-.57.26-.86.15-.27.34-.48.59-.64.3-.2.56-.23.79-.09.02.01.06.06.13.15.05.06.09.12.14.18.04,0,.09,0,.16-.03.04.18.01.35-.08.52-.02.03-.05.09-.1.19-.02.04-.03.11-.04.21-.08-.01-.15-.02-.23-.03,0-.09,0-.16,0-.21,0-.02.03-.09.06-.2-.01-.1-.02-.2-.04-.31-.02-.1-.07-.18-.17-.24-.01,0-.07,0-.18,0-.13,0-.21.01-.22.01-.09.08-.21.19-.34.34-.15.16-.25.29-.29.37-.08.15-.13.29-.14.44-.02.19-.04.32-.06.39.07.15.14.24.22.29.03.02.17.03.4.03.05-.06.13-.12.24-.21.12-.09.2-.16.26-.21l.15.09.02.08c-.01.06-.02.1-.02.11-.02.03-.05.07-.11.1Z"/><path class="cls-25" d="m10.66,27.31s-.06.07-.11.13c-.04-.03-.07-.04-.1-.05l-.09-.03c-.1-.04-.18-.12-.23-.24-.16.04-.3.03-.43-.03-.16-.07-.27-.15-.34-.26-.08-.13-.09-.27-.03-.43.08-.2.24-.28.5-.26.1,0,.3.06.6.15,0-.02.02-.04.04-.07.02-.03.04-.06.04-.07.03-.07.03-.15,0-.23-.03-.08-.07-.13-.14-.16-.05-.02-.19-.05-.4-.07.03.05.05.12.06.21-.1.05-.16.08-.18.08-.06.01-.13,0-.2-.03-.04-.17-.05-.27-.03-.32.02-.06.09-.1.2-.14.1-.03.18-.04.25-.03.07,0,.17.04.3.09.12.05.2.09.24.13.07.06.11.14.12.24,0,.02,0,.13,0,.32-.05.05-.09.11-.12.19-.07.18-.11.32-.12.41-.05.05-.08.09-.09.13-.01.03,0,.06,0,.1.02.04.04.06.06.07.03.01.1.02.22,0,0,.07,0,.11-.01.12,0,.01-.02.03-.03.05Zm-.49-.85c-.17-.06-.29-.1-.34-.11-.16-.03-.26.01-.3.12-.03.08-.03.16.02.24.04.07.1.12.18.15.03.01.18.04.44.06.08-.16.14-.29.19-.41-.05,0-.12-.03-.19-.05Z"/><path class="cls-25" d="m12.68,26.36l-.04.06-.1-.09c-.14.12-.21.21-.22.29l-.14.91s.11.06.18.1l-.03.22c-.1-.03-.19-.05-.27-.07-.08-.01-.17-.02-.26-.02-.02-.06-.06-.12-.12-.2.09-.03.17-.05.23-.08,0,0,.03-.16.09-.44.03-.16.06-.3.08-.42.02-.12.02-.21.01-.25-.02-.06-.07-.12-.15-.17-.06.05-.16.13-.28.23l-.15,1s.07.04.15.09l-.03.21-.3-.06c-.1-.02-.2-.03-.3-.03v-.08c0-.06.02-.09.04-.1.01-.01.04-.03.09-.05.07-.02.13-.06.19-.12l.15-1s-.11-.05-.25-.11l.03-.22c.13.02.21.03.25.04l.13.03s.1,0,.19-.02c.07-.01.13-.03.2-.04.01,0,.06.05.12.11.05.05.09.07.12.08.04,0,.1,0,.17-.03.08-.02.13-.03.17-.03.22.03.33.18.33.44,0,0,0,.11-.02.32,0,.1,0,.2.02.3h-.03s-.02.04-.02.04v.02s-.08.41-.08.41c.04.03.1.04.18.05l.05.05-.02.14c-.09.06-.16.09-.21.09-.05,0-.12-.03-.2-.07-.09-.04-.16-.07-.21-.08l.03-.22h.07s.03-.04.03-.04c.01-.09.04-.22.09-.4.05-.17.08-.3.09-.38.01-.08.01-.16,0-.22,0-.05-.04-.12-.07-.2Z"/><path class="cls-25" d="m14.71,27.79s-.09.11-.16.2c-.15.05-.29.07-.42.06-.19-.01-.31-.08-.35-.22-.02.03-.03.08-.03.15-.08.02-.13.03-.15.03-.04,0-.07-.02-.11-.07-.04-.04-.05-.08-.05-.12l.17-1.99-.04-.06s-.04.01-.08,0c-.06,0-.15-.02-.25-.04v-.19c.06,0,.13,0,.24,0,.09,0,.17,0,.23,0,.06,0,.13.01.21.03,0,.1-.02.23-.04.41-.04.04-.06.08-.06.1-.01.14.01.21.08.21.04,0,.1-.01.18-.04.08-.03.15-.05.19-.04.14,0,.28.06.39.16.12.1.2.22.24.37.01.05.02.12,0,.2,0,.04-.01.11-.02.21.02.04.04.09.06.15-.04.16-.11.31-.22.45Zm-.48-1.27c-.08,0-.14,0-.18.01-.04.01-.1.04-.16.09l-.06.18c-.02.06-.05.12-.08.17v.19s.03.1.04.16c0,.04,0,.1,0,.17,0,.01.02.05.06.11.04.06.06.1.07.11.13.04.2.06.23.06.08,0,.15-.02.23-.07,0,0,.07-.06.19-.17.02-.13.03-.25.04-.36.01-.2,0-.35-.04-.45-.05-.13-.17-.2-.34-.21Z"/><path class="cls-25" d="m16.74,27.16c-.01.07-.02.16-.03.28-.17.18-.29.3-.36.35-.13.1-.29.15-.47.17-.05,0-.15-.06-.33-.19-.17-.13-.27-.22-.28-.27-.04-.14-.06-.23-.07-.27,0-.03,0-.05,0-.08v-.04s0-.04,0-.04c-.01-.05-.02-.09-.02-.13-.01-.2.06-.38.23-.54.15-.14.32-.22.52-.24.2-.02.38.05.56.2.17.15.27.33.28.54,0,.07,0,.16-.02.27Zm-.84-.77c-.16.01-.28.09-.38.24-.1.14-.14.3-.13.46,0,.14.08.28.21.41.13.13.26.19.4.18.05,0,.14-.05.24-.12.11-.08.18-.14.21-.19.03-.06.05-.19.03-.38-.01-.18-.07-.33-.16-.44-.1-.12-.24-.17-.41-.15Z"/><path class="cls-25" d="m18.53,27.42c-.08.02-.14.03-.18.03-.05,0-.11-.03-.17-.08-.1.15-.23.25-.38.3-.1.03-.29-.02-.55-.15l-.07-.17-.09-.05s-.05-.14-.08-.29c-.03-.11-.05-.2-.06-.29.03-.09.06-.26.09-.51.21-.17.34-.27.38-.28.03,0,.11-.01.22,0,.05,0,.13,0,.24.02,0-.03-.02-.09-.03-.17l-.03-.14c-.02-.1-.05-.15-.08-.18-.03-.03-.09-.03-.18,0-.06.02-.14.06-.22.13l-.07-.26c.07-.01.16-.04.28-.07.11-.03.25-.08.41-.13l.5,2.01c.08,0,.2-.02.35-.02-.03.17-.12.27-.26.31Zm-.42-.65c-.02-.08-.03-.12-.04-.14.02.03.09.13.21.29l-.12-.35-.11.05s-.03-.09-.06-.14c-.03-.08-.06-.13-.07-.14-.22-.17-.37-.24-.45-.22-.08.02-.16.11-.23.26-.07.15-.1.26-.08.35.05.2.08.33.1.38.03.11.1.19.22.24.11.05.22.07.32.04.08-.02.14-.06.19-.12.02-.02.06-.09.11-.2-.01-.11,0-.19.02-.26v-.03Z"/><path class="cls-25" d="m20.57,26.79s-.08.01-.12-.01c-.06.02-.13.05-.2.08-.08.03-.2.09-.36.16-.16.08-.28.13-.36.16-.06.02-.11.03-.16.03-.02,0-.07-.02-.15-.04,0-.12.08-.22.22-.27,0,0,.04-.01.11-.03.04-.01.08-.03.11-.04l.08-.04c.01-.08,0-.16-.02-.23l-.3-.84s-.11-.01-.2.02c-.09.04-.21.1-.36.18-.02-.02-.06-.05-.12-.08,0-.09.02-.15.08-.18l.76-.3c0,.1.02.18.04.25.02.04.05.11.1.19.05.08.08.14.1.19,0,.03,0,.06-.02.11l.03.04s.02.04.03.06c0,.03.01.05,0,.06.01.03.03.08.05.14.02.06.05.14.08.23.05.03.15.01.3-.05h.03c.09-.05.16-.07.2-.07.06,0,.11.03.13.09.04.11.02.17-.06.21Zm-.93-1.75s-.03,0-.05.02c-.02,0-.04.01-.05.02,0,0-.03.03-.05.08-.02.05-.05.07-.07.08-.02,0-.09,0-.21,0-.11,0-.18-.01-.22-.02-.03-.1-.04-.19-.02-.3.02-.12.08-.19.16-.23.08-.03.17-.03.25.02.09.05.14.12.18.21,0,.02.01.04.01.07.03,0,.06.01.1.01l-.06.09-.03-.09.1.02s-.03.02-.04.03Z"/><path class="cls-25" d="m22.01,25.44s.01.1.02.17c-.04.02-.08.03-.1.05l-.08.06c-.1.06-.2.06-.33.03-.08.15-.18.26-.3.33-.15.09-.29.13-.41.12-.15-.01-.26-.09-.34-.25-.09-.19-.05-.38.14-.57.07-.08.24-.21.51-.39,0-.02-.02-.04-.03-.08,0-.04-.02-.06-.03-.08-.03-.07-.09-.11-.17-.14-.08-.03-.15-.02-.21.01-.05.03-.16.12-.31.28.06,0,.13.03.19.08-.03.11-.05.18-.06.2-.03.06-.08.1-.15.15-.15-.07-.23-.13-.25-.18-.03-.05-.02-.14.03-.25.04-.1.09-.17.14-.22.05-.05.14-.11.26-.18.11-.06.19-.1.25-.11.09-.02.18,0,.26.05.02.01.09.08.23.2,0,.07.03.14.06.21.09.17.16.29.22.35,0,.07.01.12.03.16.01.02.04.04.08.05.04.01.07,0,.09,0,.03-.02.08-.07.15-.18.05.04.07.07.08.09,0,.01.01.03.02.06Zm-.94-.14c-.16.1-.26.17-.3.21-.12.11-.16.21-.11.31.04.08.1.12.19.13.07,0,.15,0,.23-.05.03-.02.14-.12.33-.31-.06-.16-.12-.3-.18-.41-.04.04-.09.08-.16.12Z"/><path class="cls-23" d="m5.55,11.44l-.32-.03c-.5,1.18-.5,2.51-.5,3.87,0,5.34,4.25,9.68,9.48,9.68.37,0,.73-.02,1.08-.06.61-.6.88-1.08,1.3-1.95.14.11.31.21.48.24.41.08.63-.18,1.09-.28,1.42.51,1.71.74,3.45.02.25.13.62.16.95.11.74-.12.86-.63,1.14-.98.27-.35.65-.47.65-.47.29.03.94-.02.98-.43.05-.41-.41-.9-.4-1.34.01-.44-.01-2.34-.27-2.93-.26-.6-1.26-.42-1.26-.42-.56-.33-.79-.61-.79-.61-.15-1.12,1.17-2.12-.46-3.54.06-.3.04-.69.04-.69,1.03-.03,1.52.43,2.62.43,1.1,0,1.98-1.04,2.2-1.29,1.09-.57,1.61-1.24,1.46-1.78-.16-.54-.82-.82-2.14-1.17-1.32-.34-1.99-.15-2.94.53-.95.68-1.82.54-1.82.54-.34-.45-.7-.51-1.08-.5-.18-.58-.74-.61-.83-1.15,3.07.26,2.88-1.36,2.88-1.36-.74.71-1.87.31-1.87.31,0,0,.6-.03.54-.28-.06-.24-.71-.17-.71-.17.26-.16.77-.12.77-.12-1.26-.82-3.21-.15-3.21-.15.42-1.77-.9-1.44-.9-1.44.35.02.47.48-.28,1.29-.49.53-1.24.77-1.69.87-.39.09-.45.1-.74.39-.98,1-1.48,2.54-1.52,2.81-1.43.73-2.37-1.12-4.08-1.05-1.24.06-3.87.88-4.07,1.73-.2.85.31,1.06.76,1.35Z"/><path class="cls-6" d="m18,22.27s1.08.09,2.03-.27c1.47-.56,2.25-.53,3.83-.45,0,0-.5.28-.62.57-.12.3-.41.77-1.4.6,0,0,.23-.18.53-.28,0,0-.51-.1-1,.27-.49.37-.95.41-1.41.41-.46,0-.95-.2-1.4-.37-.45-.17-.56-.49-.56-.49h0Zm1.29-4.54s1.13.42,1.3,1.52c.16,1.11-.33,1.32-.67,1.33-.34,0-.78-.5-.79-1.27,0-.78.51-1.06.51-1.06,0,0-.05-.13-.15-.24-.1-.11-.2-.27-.2-.27h0Zm4.63-.44s-1.02.6-.94,1.6c.09,1.01.57,1.09.87,1.02.3-.07.59-.6.43-1.29-.16-.69-.68-.83-.68-.83.05-.18.19-.37.32-.51h0Zm-10.58-2.16s.1-.98,1.01-1.27c.9-.29,1.85.22,1.8,1.1.17-2.21-3-1.84-2.8.17h0Zm8.89-4.37c-.05-.13-.06-.51.64-1.21.71-.7,1.11-.92,1.11-.92,0,0-.55.45-1.08,1.2-.52.75-.44.94-.06,1.35-.22-.04-.53-.17-.63-.42h0Zm-6.3-1.58s.86-1.07,1.64-1.24c.78-.17,1.32.09,1.65.57.32.48.14,1.08.08,1.37,0,0,.12-.72-.27-1.2-.39-.49-.8-.52-1.47-.39-.67.13-1.6.86-1.63.9h0Zm1.8.78s.91.51,1.38,1.72c.44,1.12-.1,2.45-1.07,2.58-.86.12-1.92-.64-2.4-1.38.11.08.15.11.32.19,0-.38.05-1.25.54-2.15.64-1.17,1.53-1.62,2.05-1.74,0,0-.45.32-.63.5-.18.18-.18.28-.18.28h0Zm3.19,3.72s.83-.1,1.04-1.03c1.26.89.38,1.83.35,2.87-.49-.52-1.08-1.38-1.38-1.84h0Zm-10.29-3.94c.33.41,1.95,1.63,1.25,2.31,0,0,.68-.26.39-.83-.28-.56-1.65-1.48-1.65-1.48h0Zm11.46,1.55s.51-.04.95.08c.44.12.66.3,1.48.36.82.06,1.07-.08,1.72-.67.21-.19.39-.38.53-.55.3-.34.41-.48.59-.6-.15.24-.17.41-.17.41,0,0,.15-.03.67-.49.66-.57.26-1.11-.38-1.38-.64-.27-1.81-.62-2.51-.5-1.16.19-1.82,1.31-2.82,1.48,0,0,.26-.15.37-.31-.39.08-.8.1-.8.1,0,0,.25.28.32.74.07.46-.13.92-.13.92.09.21.17.4.17.4h0Zm-16.72.45c.15-.03.3-.07.46-.1,0,0-.29.12-.62.54.05-.15.1-.29.16-.44h0Zm-.39,1.27c-.17.73-.26,1.48-.26,2.26,0,5.34,4.25,9.68,9.48,9.68.09,0,.17,0,.26,0,.64-.47,1.34-1.03,1.75-2.26-.55-.6-.79-1.75-.34-2.64-.07-.26-.1-.46-.18-.55-1.23-.3-2.13-1.59-1.88-2.7.31,1.6,1.14,2.17,1.64,2.3-1.06-1.93-.95-2.39-.73-3.43-.1.04-.2.1-.27.17-.15.16-.15-.05,0-.29.22-.32.56-.49.85-.39.43.14.63.73.63.73-.3-.27-.47-.38-.78-.38-.29.42-.47.93-.4,1.38.16.99,1.04,1.94,1.35,2.85.1-.2.43-.48.43-.48,0,0-.24.39-.41,1.07-.17.68-.21,1.65.31,2.12.53.47.84.53.99.45.15-.08.48-.21.48-.21l-.24-.4s-.26-.03-.48-.13c-.22-.1-.34-.24.14-.16.47.08.89.18,1.81,0,1.25-.25,1.88-.59,2.68-.72.63-.1,1.41-.04,2.38.05.73.07.83-.08.85-.38.01-.3-.15-.64-.15-.64l-.08.27s-.12-.31-.07-1.38c.05-1.07-.26-2.22-.53-2.39-.27-.17-.83-.12-1.3.01-.47.13-1.3.26-1.3.26.21.02.46.05.82.03-.19.09-.38.14-.59.14-1.1,0-2.3-.18-2.97-.26-.79-.09-1.38.51-1.38.51.17-.43.58-.63,1.17-.73.58-.1,1.5.2,2.37.17.87-.03,1.84-.43,1.84-.43-1.45-1.3-1.91-2.42-2.48-3.17-.57-.75-.75-1.04-.68-1.88.07-.84.93-1.55.93-1.55-.09-.19-.36-.3-.36-.3,1.03-.12,1.51,1.15,1.51,1.15,0,0,.22-.4.03-.94-.19-.54-.75-1.07-1.17-1.13-.41-.06-.97.41-.97.41.14-.38.5-.57.5-.57-.18-.58-.76-.68-.9-1.45-.29-.06-.72-.26-.72-.26.35.08,1.5.23,2.44.09.94-.14,1.26-.62,1.26-.62,0,0-.14.11-.7.19-.55.08-1.29-.22-1.29-.22l-.67-.09s.27.03.85-.05c.58-.08.61-.28-.04-.18-.65.09-1.74.21-1.74.21.38-.11,1.31-.28,1.31-.28.16-.21.67-.33.67-.33-1.42-.33-2.8.3-2.8.3-.42.66-1.41.9-1.41.9,0,0,.75-.25,1.19-1.03.44-.79.02-1.44.02-1.44.11.25.05.68-.69,1.44-.49.5-1.17.69-1.59.77-.34.06-.42.03-.68.29-.13.13-.29.3-.52.61-.62.82-.9,2.04-.9,2.04.19-.07.56-.21.56-.21-.46.4-.85.6-1.2.68.27.19.61.18.61.18-1.48.52-3.13-1.59-4.86-1.3-1.41.24-3.3.92-3.28,1.64.02.72,1.79,1.39,1.79,1.39-.11-.21-.34-.42-.5-.5.26,0,.48.13.65.27.41.32.83.78,1.43,1.17.85.56,1.66.52,2.24.14.58-.38.89-.64,1.7-.7.81-.06,1.49.42,1.49.42-.19-.08-.91-.15-1.05-.06-1.04.85-1.07,2.16-1.07,2.16-.27-.93.11-1.66.53-2.13-1.05-.13-1.57,1.41-3.06.96-.64-.19-1.5-.71-1.99-1.29-.2-.06-.62-.22-1.06-.43-.49.37-.9.78-1.23,1.2Z"/><path class="cls-15" d="m10.12,19.31c-.27-1.37.74-.52,1.37.38.63.9.36-1.12-.23-3.37-.58-2.25-2.24-1.45-3.76-1.88-.89-.25-1.31,3.38-.41,5.17,1.19,2.38,3.76,3.52,3.02-.3h0Zm3.33-9.33c-.07-.02-.14-.04-.21-.06,0,0,.43-.14.7-.27.27-.13.31.29.29.92-.02.61-.11,1.44-.24,1.34-.04.03-.08.01-.15-.06-.34-.38-.76-1.03-1.3-1.15-.54-.11-.97-.67-.97-.67.05.03,1.04.39,1.66.36.36-.02.73-.25.22-.41h0Zm6.24,2.66s.54,1.1.97,1.75c.43.65,1.99,1.87,1.39,2.13-.33.15-.65.16-1.39.16-.84,0-2.16-.19-2.47-.23-.58-.07,1.78-.74,1.91-1.33.13-.58-.25-1.19-.38-1.55-.13-.36-.02-.94-.02-.94h0Zm-5.15,1.42s.56-.2,1.06.09c.49.29.52.83.4,1.08,0,0-.04-.72-.54-.76-.49-.04-.74.04-.92-.04-.18-.09-.2-.34,0-.36h0Zm6.72-4.88c.27.2.52.65.49.94,0,0-.31-.45-.52-.54-.23-.1-.48-.78.02-.4h0Zm-3.51-.72c.2-.04.7-.13,1.06.2.36.34.4.92.31,1.26,0,0-.13-.81-.49-.85-.36-.04-.83-.04-.94-.16-.11-.11-.13-.41.07-.45h0Zm-1.26-1.51s.43.11.67.29c.25.18.38.56.38.56,0,0,.2-.13.56-.13s1.28.85,1.28.85l.25.11s.04-.56-.27-.85c-.31-.29-1.01-.58-1.64-.81-.63-.22-1.24-.02-1.24-.02h0Zm-2.56,6.2s.11-.49.4-.61c.29-.11.92.2,1.15.45.22.25.38.63.38.63,0,0-.76-.56-1.24-.58-.47-.02-.7.11-.7.11h0Zm8.25-.18s.16.31-.07.9c-.22.58.07.81.2.79.14-.02.2-.45.2-.88s-.34-.81-.34-.81h0Zm-2.97,4.34c.43,0,1.8.25,2.49.18.7-.07,2.04-.72,1.96-.38-.09.34-.81.76-.99,1.42-.18.65.31,1.46.58,1.62.27.16-.65.2-1.26-.65-.61-.85-.53-.15-.97.49-.44.64.38-.63-.27-1.57-.65-.94-1.55-1.1-1.55-1.1h0Zm.47,4.11s1.46-.54,2.36-.61c.9-.07,2.09.36,2.58.22.49-.13,0-.45-.11-.61,0,0-.04.36-.79.29-.74-.07-1.26-.22-2.18-.04-.92.18-1.87.74-1.87.74h0ZM6.65,9.94s1.06.29,1.42.65c.36.36.97,1.19.36,1.01-.61-.18.11.67-.34.34-.45-.34-.2-.61-1.08-.92-.88-.31,0-.27.09-.54.09-.27-.45-.54-.45-.54h0Zm16.97,1.03s1.55-.25,2.05-.63c.49-.38,1.44-.47,1.44-.47,0,0-.81,1.12-1.78,1.28-.97.16-1.71-.18-1.71-.18h0Zm-6.2,3.64s.4.38.99.29c.58-.09.67-.97.67-.97-.43.72-1.66.67-1.66.67h0Zm1.87-4.44c.18-.06.6-.07.51.18-.09.25-.34,1.03-.35,1.3,0,0-.17-.56-.19-.93-.02-.37-.09-.49.03-.55h0Zm.38-3.79c.1-.09.63.06.8.09.17.03.33.12-.19.11-.52-.01-.84-.07-.61-.2h0Zm-.42-.72c.15-.12.96-.19.8-.09-.16.1-.44.19-.63.22-.19.03-.34-.05-.17-.13Z"/><path class="cls-19" d="m22.75,11.05c.26-.47.92-1.47,2.1-1.85,1.57-.52,2.16.2,2.58.54.48-.11,1.1-1.45-2.85-1.67-.93.34-1.54,1.23-2.43,1.38,0,0,.26-.15.37-.31-.39.08-.8.1-.8.1,0,0,.25.28.32.74.07.46-.13.92-.13.92.09.21.17.4.17.4,0,0,.51-.04.95.08.44.12.66.3,1.48.36.67.05.96-.03,1.39-.39-.5.12-1.24.2-2.17.05-.47-.08-.79-.2-1-.35h0Zm-15.72,2.58c.28.2.66.37,1.17.45,1.63.27,2.53,0,2.9-.43.23-.27.49-.14.66,0,.1-.44.33-.81.57-1.08-1.05-.13-1.57,1.41-3.06.96-.64-.19-1.5-.71-1.99-1.29-.2-.06-.62-.22-1.06-.43-.49.37-1.07.75-1.4,1.17-.17.73-.14,1.49-.14,2.27.14,4.34,2.71,7.77,6.47,9.21.63.24,1.37.36,2.04.43.33.04.67.06,1.02.06.09,0,.17,0,.26,0,.64-.47,1.34-1.03,1.75-2.26-.55-.6-.79-1.75-.34-2.64-.07-.26-.1-.46-.18-.55-1.23-.3-2.13-1.59-1.88-2.7.31,1.6,1.14,2.17,1.64,2.3-1.06-1.93-.95-2.39-.73-3.43-.1.04-.2.1-.27.17-.15.16-.15-.05,0-.29.22-.32.56-.49.85-.39.27.09.45.36.55.54-.01-1.04-1.4-.57-1.66-1.01-.16-.26,0-.6.17-.84h0c-.36.12-.59.34-.74.57,0,.02,0,.04,0,.04h0c-.21.32-.25.66-.25.66-.03-.34.03-.63.16-.87-.33-.85.05-1.51.19-1.71-.29-.05-.72-.07-.82,0-1.04.85-1.07,2.16-1.07,2.16-.02-.08-.04-.16-.06-.24-.12,1.34.34,2.51.91,3.42,1.17,1.84,1.42,1.17.73,3.39-.18.57-.41,1.25-.74,2.03-2.71-.23-5.58-1.6-6.54-4.23-.96-2.63.26-4.67.92-5.44h0Zm-1.76-2.35s.42.22.58.37c0,0-.29.12-.62.54-.37.36-.26.04-.21-.11l.25-.8Zm16.64,1.6c-.04.23-.13.64-.29.94-.21.39.14,1.23.82,1.02-.06.22-.11.45-.12.69-.49-.52-1.08-1.38-1.38-1.84,0,0,.69-.08.97-.81h0Zm-3.05,1.01s-.67.81-1.71.43c-.53-.2-1-.59-1.23-1.1.55.61,1.41,1.14,2.14,1.04.35-.05.65-.25.86-.55l-.06.18h0Zm-3.02-.89c-.13-.43-.1-.92.17-1.45.29-.57.59-.93.84-1.14-.11.15-.22.32-.33.51-.49.9-.54,1.77-.54,2.15-.06-.03-.1-.05-.14-.07h0Zm4.12-4.27c-.14.04-.36.13-.42.32-.1.27.32.57.47.77.09.17.14.37.06.64-.03.08-.05.17-.07.25.28-.46.66-.78.66-.78-.09-.19-.36-.3-.36-.3.68-.08,1.12.44,1.34.81-.09-.45-.38-.59-.86-.97-.45-.35-.21-.68-.13-.77-.41-.04-.94.41-.94.41.06-.16.16-.29.26-.39h0Zm-2.49-.75c-.38,0-1.39.08-1.48,1.15,0,0,.01-.01.04-.04.21-.24.83-.92,1.44-1.12h0Zm1.07,1.23c.08.05.58.45.39,2.02-.49-.88-1.17-1.26-1.17-1.26,0,0,0-.1.18-.28.15-.15.5-.4.6-.48h0Zm.69-3.72c-.19.08-.38.18-.52.28-.42.28.58.18,1.13.15-.29.05-.87.17-1.15.25,0,0,.39-.04.85-.09-.06.04-.06.07.04.08.16.02.32.03.44.04-.28.02-.41,0-.41,0l.27.04c-.47.06-1.25.17-1.01.3.32.17,2.51.42,3.32-.13-.14.14-.49.43-1.19.54-.94.14-2.08,0-2.44-.09,0,0,.43.2.72.26.02.11.05.2.08.28-.35-.14-.88-.36-1.24-.54-.48-.25-1.03-.27-1.19-.27.31-.14.7-.37.92-.72,0,0,.57-.26,1.35-.36h0Zm-1.52-1.15c.03.31.04,1.26-.78,1.76-.99.61-1.24.56-1.39.63-.16.07-1.17,1.21-1.33,2.25,0,0-.19.16-.45.32.03-.02.06-.05.09-.08,0,0-.37.14-.56.21,0,0,.27-1.22.9-2.04.23-.31.39-.48.52-.61.26-.26.34-.23.68-.29.42-.08,1.11-.27,1.59-.77.74-.76.8-1.19.69-1.44,0,0,.01.02.03.06h0Zm1.41,18.11c.31-.03.87-.1,1.27-.3.54-.27,1.92-.59,3.17-.38.16-.13.31-.21.31-.21-1.58-.08-2.36-.11-3.83.45-.96.36-2.03.27-2.03.27,0,0,.11.32.56.49.45.17.94.36,1.4.37.46,0,.92-.04,1.41-.41.49-.37,1-.27,1-.27-.3.1-.53.28-.53.28.79.13,1.13-.14,1.3-.41-.24.06-.52.04-.74-.04-.36-.13-1.48.23-2.27.43-.42.11-.78-.07-1.03-.26h0Zm5.88-1.25c-.08.14-.29.19-.79.15-.98-.09-1.76-.16-2.38-.05-.81.13-1.43.47-2.68.72-.92.19-1.34.09-1.81,0-.47-.08-.35.06-.14.16.21.1.48.13.48.13l.24.4s-.33.13-.48.21c-.15.08-.47.02-.99-.45-.52-.47-.48-1.45-.31-2.12.17-.68.41-1.07.41-1.07,0,0-.32.28-.43.48-.3-.91-1.19-1.86-1.35-2.85-.07-.45.11-.95.4-1.38.25,0,.42.07.64.26-.14,0-.44.02-.63.21-.27.25.2,1.78,1.08,2.4,0,0,.6-.88,1.57-1.3-.14.11-.25.24-.32.41,0,0,.59-.6,1.38-.51.06,0,.13.02.2.02-.39.11-.98.35-1.13.85-.23.76-.27,1.64-.45,2.22-.18.58-.2,1.89,1.33,1.73,1.53-.16,2.34-.74,3.44-.76.99-.02,1.89.36,2.72.12h0Zm-2.75-10.42c-.05-.13-.06-.51.64-1.21.71-.7,1.11-.92,1.11-.92,0,0-.55.45-1.08,1.2-.52.75-.44.94-.06,1.35-.22-.04-.53-.17-.63-.42h0Zm-16.24-.98s1.19-.74,2.2-.74c.7,0,1.65.21,2.45.71.34.42,1.94,1.63,1.25,2.3,0,0,.33-.13.43-.4.04,0,.09,0,.14,0,.94-.02,1.31.79,1.37.91-.21-.12-.77-.41-1.4-.36-.81.06-1.12.32-1.7.7-.58.38-1.39.41-2.24-.14-.6-.39-1.02-.85-1.43-1.17-.17-.14-.39-.27-.65-.27.16.08.39.29.5.5,0,0-1.77-.67-1.79-1.39,0-.23.18-.45.47-.65-.08.1-.33.43-.33.62,0,.22.18.58.76.72.58.13,1.33.34,1.89.9.56.56,1.55,1.3,2.4.83.35-.19.6-.42.85-.63-.63,0-1.55-.21-2.33-1.15-1.19-1.44-2.83-1.28-2.83-1.28h0Zm4.71,0c.05.04.14.1.25.18-.08-.06-.16-.12-.25-.18h0Zm8.65,8.03c.02.13.05.45-.06.79.15-.26.34-.37.34-.37,0,0-.05-.13-.15-.24-.05-.05-.1-.12-.14-.18h0Zm4.54-.5c-.12.14-.24.31-.29.48,0,0,.52.14.68.83.09.4.03.76-.09.99v.02c.49-1.03.09-1.43-.16-1.71-.24-.28-.14-.59-.13-.61Z"/><path class="cls-22" d="m17.51,17.48c-.22.32-.44.78-.51,1.06-.06.29-.28.43-.51.74.02-.01.03-.02.03-.02,0,0-.24.39-.41,1.07-.17.68-.21,1.65.31,2.12.53.47.84.53.99.45.15-.08.48-.21.48-.21l-.24-.4s-.26-.03-.48-.13c-.22-.1-.34-.24.14-.16.47.08.89.18,1.81,0,1.25-.25,1.88-.59,2.68-.72.63-.1,1.41-.04,2.38.05.73.07.83-.08.85-.38.01-.3-.15-.64-.15-.64l-.08.27s-.12-.31-.07-1.38c.05-1.07-.26-2.22-.53-2.39-.27-.17-.83-.12-1.3.01-.47.13-1.3.26-1.3.26.21.02.46.05.82.03-.19.09-.38.14-.59.14-1.1,0-2.3-.18-2.97-.26-.79-.09-1.38.51-1.38.51,0,0,0-.02.01-.03h0Zm.49,4.79s1.08.09,2.03-.27c1.47-.56,2.25-.53,3.83-.45,0,0-.5.28-.62.57-.12.3-.41.77-1.4.6,0,0,.23-.18.53-.28,0,0-.51-.1-1,.27-.49.37-.95.41-1.41.41-.46,0-.95-.2-1.4-.37-.45-.17-.56-.49-.56-.49h0Zm1.29-4.54s1.13.42,1.3,1.52c.16,1.11-.33,1.32-.67,1.33-.34,0-.78-.5-.79-1.27,0-.78.51-1.06.51-1.06,0,0-.05-.13-.15-.24-.1-.11-.2-.27-.2-.27h0Zm4.63-.44c-.13.15-.27.33-.32.51,0,0,.52.14.68.83.16.69-.12,1.22-.43,1.29-.3.07-.78-.02-.87-1.02-.09-1.01.94-1.6.94-1.6h0Zm2.42-9.2c-.62-.04-1.38-.02-1.91.26-.41.21-.75.47-1.03.73.38-.32.58-.43.58-.43,0,0-.55.45-1.08,1.2-.52.75-.44.94-.06,1.35-.03,0-.07-.01-.11-.03.07.07.17.14.29.22h0c.44.12.66.3,1.48.36.82.06,1.07-.08,1.72-.67.21-.19.39-.38.53-.55.3-.34.41-.48.59-.6-.15.24-.17.41-.17.41,0,0,.15-.03.67-.49.66-.57.26-1.11-.38-1.38-.3-.13-.72-.27-1.15-.37h0Zm-18.32.77c.85-.08,1.86.32,2.63.91.35.42,1.94,1.63,1.24,2.3,0,0,.03-.01.08-.04-.05.1-.13.2-.22.3-.37.12-.64.32-1.03.58-.58.38-1.39.41-2.24-.14-.6-.39-1.02-.85-1.43-1.17-.17-.14-.39-.27-.65-.27.16.08.39.29.5.5,0,0-1.77-.67-1.79-1.39-.02-.66,1.56-1.28,2.91-1.57h0Zm11.71.22c.15-.12.58-.42.91-.37.41.06.98.59,1.17,1.13.19.54-.03.94-.03.94,0,0-.48-1.27-1.51-1.15,0,0,.28.11.36.3,0,0-.86.71-.93,1.55.31-1.42-.32-1.7.03-2.4h0Zm-.62,2.61c-.47-1.2-1.38-1.72-1.38-1.72,0,0,0-.1.18-.28.18-.18.63-.5.63-.5-.52.12-1.4.57-2.05,1.74-.49.9-.54,1.77-.54,2.15-.17-.08-.21-.11-.32-.19-.36-.49-.91-1.98.35-3.75.21-.17.99-.74,1.58-.85.67-.13,1.08-.1,1.47.39.31.39.3.92.28,1.12,0,.48-.5.92-.19,1.88h0Zm-7.98,12.76c.92-2.39,2.66-5.47,4.25-5.03.1.03.2.07.31.1.08.09.11.29.18.55-.45.89-.21,2.04.34,2.64-.41,1.23-1.11,1.79-1.75,2.26-.09,0-.17,0-.26,0-1.07,0-2.11-.18-3.07-.52Z"/><path class="cls-11" d="m21.25,9.18c.27.2.52.65.49.94,0,0-.31-.45-.52-.54-.23-.1-.48-.78.02-.4h0Zm-3.51-.72c.2-.04.7-.13,1.06.2.36.34.4.92.31,1.26,0,0-.13-.81-.49-.85-.36-.04-.83-.04-.94-.16-.11-.11-.13-.41.07-.45h0Zm1.46,8.85c.43,0,1.8.25,2.49.18.7-.07,2.04-.72,1.96-.38-.09.34-.81.76-.99,1.42-.18.65.31,1.46.58,1.62.27.16-.65.2-1.26-.65-.61-.85-.53-.15-.97.49-.44.64.38-.63-.27-1.57-.65-.94-1.55-1.1-1.55-1.1h0Zm.47,4.11s1.46-.54,2.36-.61c.9-.07,2.09.36,2.58.22.49-.13,0-.45-.11-.61,0,0-.04.36-.79.29-.74-.07-1.26-.22-2.18-.04-.92.18-1.87.74-1.87.74h0ZM6.65,9.94s1.06.29,1.42.65c.36.36.97,1.19.36,1.01-.61-.18.11.67-.34.34-.45-.34-.2-.61-1.08-.92-.88-.31,0-.27.09-.54.09-.27-.45-.54-.45-.54h0Zm16.97,1.03s1.55-.25,2.05-.63c.49-.38,1.44-.47,1.44-.47,0,0-.81,1.12-1.78,1.28-.97.16-1.71-.18-1.71-.18h0Zm-3.86-.77s.05.08.03.15h0s-.02-.1-.03-.15h0Zm-.55.05s0-.02.01-.03v.03Z"/><path class="cls-8" d="m17.51,17.48c-.22.32-.44.78-.51,1.06-.06.29-.28.43-.51.74.02-.01.03-.02.03-.02,0,0-.24.39-.41,1.07-.17.68-.21,1.65.31,2.12.53.47.84.53.99.45.15-.08.48-.21.48-.21l-.24-.4s-.26-.03-.48-.13c-.22-.1-.34-.24.14-.16.47.08.89.18,1.81,0,1.25-.25,1.88-.59,2.68-.72.63-.1,1.41-.04,2.38.05.5.05.71,0,.79-.15-.83.24-1.73-.14-2.72-.12-1.1.02-1.91.61-3.44.76-1.53.16-1.51-1.15-1.33-1.73.18-.58.22-1.46.45-2.22.15-.5.74-.74,1.13-.85-.07,0-.14-.02-.2-.02-.79-.09-1.38.51-1.38.51,0,0,0-.02.01-.03h0Zm-6.51-5.27c-.2.02-.42.08-.63.22-.34.21-.61.41-.83.55-.63-.08-1.24-.57-1.63-.97-.56-.56-1.3-.76-1.89-.9-.58-.13-.76-.49-.76-.72,0-.19.25-.52.33-.62-.3.21-.48.43-.47.65.02.72,1.79,1.39,1.79,1.39-.11-.21-.34-.42-.5-.5.26,0,.48.13.65.27.41.32.83.78,1.43,1.17.27.18.54.3.8.36h0s.05.01.07.02h0s.05.01.07.01h0s.1.02.15.02h0s.02,0,.02,0h0s.03,0,.04,0h.02s0,0,0,0c.02,0,.05,0,.07,0h0s.03,0,.04,0h.03s0,0,0,0h.02s.02,0,.02,0h.02s.01,0,.01,0h.02s0,0,0,0h.02s.02,0,.02,0h0s.02,0,.02,0h0s.02,0,.03,0h.01s.01,0,.01,0h.02s.02,0,.02,0h.01s.02,0,.02,0h.02s.01,0,.01,0h.02s.01,0,.01,0h.02s.02,0,.02,0h.02s.01,0,.01,0h.02s.01,0,.01,0c0,0,.02,0,.02,0h.01s.02,0,.02,0h.01s.01,0,.02-.01h.01s.02-.01.02-.01h0s.02,0,.03-.01h0s.01,0,.02-.01h0s.02-.01.03-.01h0s.02-.01.02-.01h0s.02-.01.03-.02h0s.02-.01.02-.01h0s.41-.77.41-.77h0Zm-.38.75l.03-.02h0s-.01.01-.02.02h0Zm.06-.03l.33-.71c-.62-.03-1.46-.28-2.17-1.15-1.19-1.44-2.83-1.28-2.83-1.28,0,0,1.19-.74,2.2-.74.7,0,1.63.2,2.43.7l.03.02c.35.42,1.94,1.63,1.24,2.3,0,0,.03-.01.08-.04-.05.1-.13.2-.22.3-.05.02-.1.04-.15.06h-.01s0,0,0,0h-.01s0,0,0,0h0s0,0,0,0h0s0,0,0,0h0s-.01.01-.01.01h0s0,0,0,0h-.01s0,0,0,0h-.01s0,0,0,0h-.01s0,0,0,0h0s0,0,0,0h0s0,0,0,0h0s-.01,0-.01,0h0s-.01,0-.01,0h0s-.01,0-.01,0h0s-.01,0-.01,0h0s0,0,0,0h0s0,0,0,0h0s0,0,0,0h0s-.01.01-.01.01h0s0,0,0,0h-.01s0,0,0,0h0s-.01,0-.01,0h0s0,0,0,0h0s0,0,0,0l-.03.02h0s-.01,0-.01,0h0s-.01,0-.01,0h0s0,0,0,0h0s0,0,0,0h0s0,0,0,0h0s0,0,0,0h-.01s0,0,0,0h-.01s0,0,0,0h-.01s0,0,0,0h-.01s0,0,0,0h0s0,.01,0,.01h0s0,.01,0,.01h0s-.01.01-.01.01h0s-.01,0-.01,0h0s-.01,0-.01,0h0s-.01,0-.01,0h0s0,0,0,0h0s0,0,0,0h0s0,0,0,0h-.01s0,0,0,0h-.01s0,0,0,0h-.01s0,.01,0,.01h-.01s0,.01,0,.01h0s0,.01,0,.01h0s0,.01,0,.01h0s-.01.01-.01.01h0s-.01.01-.01.01h0s-.01,0-.01,0h0s-.01,0-.01,0h0s0,0,0,0h0s0,0,0,0h0s0,.01,0,.01h-.01s0,0,0,0h-.02s-.02.02-.02.03h0s-.01.01-.02.02h0Zm.41,11.54c.16-.41.39-.86.6-1.3.32.04.85,0,1.03-.04.48-1.21.83-2.47,1.02-3.09,0,0,.04-.03.05-.04.53-.48,1.08-.73,1.61-.58.1.03.2.07.31.1.08.09.11.29.18.55-.45.89-.21,2.04.34,2.64-.41,1.23-1.15,1.98-1.78,2.45-.08,0-.29.04-.8,0-.41-.09-1.48-.25-2.54-.69Zm11.66-13.41c.26-.47.92-1.47,2.1-1.85,1.57-.52,2.16.2,2.58.54.46-.1,1.03-1.3-2.22-1.62-.29.04-.56.11-.78.23-.41.21-.75.47-1.03.73.38-.32.58-.43.58-.43,0,0-.55.45-1.08,1.2-.52.75-.44.94-.06,1.35-.03,0-.07-.01-.11-.03.07.07.17.14.29.22h0c.44.12.66.3,1.48.36.67.05.96-.03,1.39-.39-.5.12-1.24.2-2.17.05-.47-.08-.79-.2-1-.35h0Zm-6.92,1.95c-.13-.43-.1-.92.17-1.45.29-.57.59-.93.84-1.14-.11.15-.22.32-.33.51-.49.9-.54,1.77-.54,2.15-.06-.03-.1-.05-.14-.07h0Zm3.81-3.58c.11.15.27.28.36.39.09.17.14.37.06.64-.03.08-.05.17-.07.25.28-.46.66-.78.66-.78-.09-.19-.36-.3-.36-.3.68-.08,1.12.44,1.34.81-.09-.45-.38-.59-.86-.97-.45-.35-.21-.68-.13-.77-.33-.03-.74.26-.89.37-.06.13-.1.25-.1.36h0Zm-1.11-.22c.08.05.58.45.39,2.02-.49-.88-1.17-1.26-1.17-1.26,0,0,0-.1.18-.28.15-.15.5-.4.6-.48h0Zm.58,13.24c.25.19.61.37,1.03.26.79-.2,1.91-.56,2.27-.43.23.08.5.1.74.04-.17.27-.51.54-1.3.41,0,0,.23-.18.53-.28,0,0-.51-.1-1,.27-.49.37-.95.41-1.41.41-.46,0-.95-.2-1.4-.37-.45-.17-.56-.49-.56-.49,0,0,1.08.09,2.03-.27,1.47-.56,2.25-.53,3.83-.45,0,0-.15.09-.31.21-1.25-.21-2.64.12-3.17.38-.4.2-.96.27-1.27.3h0Zm-8.43-9.52h0s0,0,0,0h0Zm-.06.03h0s0,0,0,0h0Zm8.74,4.86c.04.05.09.12.14.18.1.11.15.24.15.24,0,0-.2.11-.34.37.11-.33.08-.66.06-.79h0Zm4.54-.5s-.11.33.13.61c.25.28.65.67.17,1.71v-.02c.12-.23.18-.59.09-.99-.16-.69-.68-.83-.68-.83.05-.17.17-.34.29-.48Z"/><path class="cls-12" d="m20.84,13.48s-.66-.58-.83-1.16c-.16-.58-.07-1.62.82-2.32,0,0,1.14.65,1.07,2.03-.07,1.39-1.07,1.44-1.07,1.44h0Zm-4.6-.27s-.16-2.17,1.33-3.1c0,0,.86.5,1.33,1.63.46,1.11-.02,2.32-1.15,2.31-1.13,0-1.5-.84-1.5-.84Z"/><path class="cls-9" d="m20.84,13.48s-.66-.58-.83-1.16c-.16-.58-.07-1.62.82-2.32,0,0,.02,0,.04.03-.2.47-.73,1.81-.31,2.49.36.57.66.72.96.59-.31.35-.69.37-.69.37h0Zm-3.21-3.32c-.21.36-.86,1.54-.65,2.52.21,1,1.01,1.37,1.62,1.07-.22.19-.5.3-.85.3-1.13,0-1.5-.84-1.5-.84,0,0-.16-2.17,1.33-3.1,0,0,.03.02.07.05Z"/><path class="cls-17" d="m23.51,18.03s-.02.01-.04.04c.1.06.47.35.48,1.04,0,.45-.1.62-.23.68.05,0,.1-.02.14-.03.17-.05.41-.39.25-1.07-.16-.68-.6-.67-.6-.67h0Zm-3.71.37s.56.33.6,1.15c.04.82-.24.82-.44.81.15-.07.27-.26.24-.78-.04-.71-.41-1.02-.55-1.12.08-.06.15-.07.15-.07Z"/><path class="cls-4" d="m23.51,18.03s-.02.01-.04.04c.08.05.34.25.44.69l.2-.06h0c-.16-.68-.6-.67-.6-.67h0Zm-3.21,1.01l-.17.11c-.13-.41-.37-.61-.48-.68.08-.06.15-.07.15-.07,0,0,.32.19.5.64Z"/><path class="cls-5" d="m23.36,18.27c-.12.15-.21.45-.14.89.07.45.25.62.4.64.12-.07.23-.17.22-.68,0-.51-.33-.8-.48-.85h0Zm-3.48,2.08c-.32-.09-.52-.54-.54-.89-.04-.54.06-.72.19-.83.16.13.53.4.56.96.03.56-.08.68-.21.76Z"/><path class="cls-3" d="m20.19,12.83c-.03-.59.25-.86.51-.8-.01.04-.02.09-.01.15.01.32.26.36.34.17.05.11.08.24.1.4.06.65-.32.93-.61.77-.04-.06-.08-.11-.12-.16-.05-.07-.1-.13-.14-.19-.03-.09-.05-.21-.06-.33h0Zm-3.38.23c-.03-.71.32-1.05.65-.98-.01.05-.02.11-.02.19.02.39.32.44.43.2.06.13.1.29.12.48.11,1.24-1.12,1.35-1.18.11Z"/><path class="cls-20" d="m8.88,13.56c-1.75,2.9-.12,8.41,2.27,10.58.27-.68.61-1.41.99-2.08l-2.27-3.46.56-5c-.33.16-.71.23-1.2.08-.11-.03-.22-.07-.34-.12Z"/><path class="cls-23" d="m16.78,23.21c.03-.07.03-.15,0-.23-.22-.04-.41-.08-.54-.14-.42.03-.78-.11-1.16-.24,0-.17-.07-.27-.28-.46-.09-.08-.17-.16-.25-.22-.04-.06-.03-.17-.19-.28-.75-.47-.92-.95-1.42-1.54-.16-.19-.36-.38-.66-.62-.41-.31-.56-.59-.7-.99-.42-1.21-.62-2.39-.48-3.44.14-1,.55-1.9,1.27-2.4-.1.01-.18.02-.26.02-.73,0-1.15.62-1.81.94-.37.18-.69.16-.9.11-1.15,2.1-.98,4.63.4,6.77,0,.36.06.71.23,1.09-.15.29-.19.52-.05.69.13.17.51.29.68.33.62.83,1.49,1.54,2.27,1.86.2.08.85.63,1.08.46.13-.1.11-.1.17-.19.89.23,1.53.11,1.87-.27l.74-1.23Z"/><path class="cls-13" d="m12.24,20.18c.04-.13-.04-.25-.13-.29-.1-.04-.3-.14-.43-.08-.14.05-.57.53-.9.98-.33.45-.69.99-.69,1.16,0,.18.3.37.52.38,0,0-.27-.27-.25-.4.02-.13.25-.47.6-.95.35-.48.72-.88.86-.9.15-.02.43.1.43.1h0Zm1.78,3.39c-.07,0-.15.04-.19.15-.02-.05-.02-.18.06-.22-.26-.12-.31-.17-.55-.32-.1-.04-.18.11-.12.16.21.18.42.34.67.48.18.07.28-.17.14-.27h0Zm-.2-1.65c.2-.14.25-.1.65.22.4.31.42.48.35.75-.07.27-.21.53-.43.95-.21.42-.44.82-.55.86-.12.04-.31-.02-.68-.32,0,0,.34.04.43.03.08,0,.14-.02.35-.43.13.02.23-.03.27-.1.05-.1.06-.25-.05-.35.19-.38.31-.64.37-.79.07-.17.05-.29-.12-.44,0,0,.07.13.06.2-.11-.12-.23-.23-.37-.35-.14-.11-.2-.16-.3-.24Z"/><path class="cls-21" d="m13.52,23.36s.07.05.25.13c.04.02.06.03.08.04,0-.01.02-.02.03-.03-.02-.01-.07-.04-.15-.08-.12-.06-.14-.08-.16-.08-.02,0-.04.01-.04.01h0Zm.51.26s-.02-.06.01-.03c.03.04.03.07-.01.03h0Zm-2.29-3.8s.02-.02.15.02c.12.04.27.08.29.13.03.06.03.1.03.1,0,0-.13-.14-.27-.17-.14-.03-.17-.02-.2-.04-.03-.02-.03-.05,0-.05h0Zm2.7,3.58c0-.05.15-.47.17-.33.02.13-.2.51-.17.33Z"/><path class="cls-10" d="m12.24,20.18h0s-.15-.17-.29-.2c-.17-.04-.3-.04-.56.27-.26.31-1.12,1.44-1.14,1.6-.01.1-.1.11-.16.07,0,.01,0,.03,0,.04,0,.18.3.37.52.38,0,0-.27-.27-.25-.4.02-.13.25-.47.6-.95.35-.48.72-.88.86-.9.15-.02.43.1.43.1h0Zm1.64,3.45s-.03.05-.04.09c0-.02-.02-.06-.01-.09-.07-.05-.37-.25-.37-.25,0-.04.05-.06.09-.07-.05-.03-.12-.07-.2-.12-.1-.04-.18.11-.12.16.21.18.42.34.67.48.09.04.16-.01.19-.08-.02-.1-.13-.12-.2-.12h0Zm-.05-1.72c.2-.14.25-.1.65.22.4.31.42.48.35.75-.07.27-.21.53-.43.95-.21.42-.44.82-.55.86-.12.04-.31-.02-.68-.32,0,0,.34.04.43.03.08,0,.14-.02.35-.43.13.02.23-.03.27-.1.05-.1.06-.25-.05-.35.19-.38.31-.64.37-.79.07-.17.05-.29-.12-.44,0,0,.07.13.06.2-.11-.12-.23-.23-.37-.35-.14-.11-.2-.16-.3-.24h0Zm.91.79c-.1-.08-.43.72-.42.78.02.09.03.28.03.28.18-.25.42-.98.4-1.06Z"/><path class="cls-16" d="m14.31,22.86c-.26-.07-.56-.14-.77-.28-.91-.62-1.26-1.37-1.52-1.83-.08-.15-.18-.28-.28-.4.06-.04.11-.06.15-.07.32.35.58.81.85,1.19.28.39.59.75,1.12,1.05.15.08.33.1.51.14,0,.02,0,.04,0,.05,0,.03-.03.08-.07.15h0Zm-2.75-10.07c-.32.45-.79,1.39-.91,2.48-.13,1.15.05,3.09.98,4.35.11,0,.35,0,.57.09-.24-.14-.38-.2-.67-.65-.28-.45-.68-1.75-.69-3.21-.01-1.45.49-2.27.8-2.81.08-.14.19-.26.3-.36-.13.02-.26.06-.37.11h0Zm.89,7.31c.26.24.38.64.65,1,.31.42.58.45.75.63.05-.03.23-.02.28-.03-.87-.6-.95-.88-1.15-1.26-.2-.38-.49-.61-.68-.7.11.08.17.28.17.36h0Zm-.4.19c.09.09.18.19.28.31.43.53.87,1.23,1.11,1.44.33.28.66.44.81.41-.07-.07-.18-.16-.26-.23-.14-.07-.47-.36-.76-.76-.29-.4-.65-.8-.9-1.08-.07-.02-.22-.08-.28-.09h0Zm4.62,2.77s-.33.28-.94.2c-.28-.04-.46-.08-.76-.18.03-.07.05-.13.06-.2.19.07.37.13.54.16.34.07.65.03.74.03.23-.02.35-.01.35-.01h0Zm-5.25-3.29c-.56-.25-1.27-.05-1.5.51,0,0-.73-1.06-.97-2.69-.12-.83-.07-2.51.67-3.86.19,0,.42-.02.68-.14.36-.17.65-.44.96-.64-.35.57-.88,1.72-.8,3.33.09,1.91.76,3.06,1.01,3.43-.02.02-.04.03-.06.05h0Zm-.13.13s.03-.03.04-.04c-.05-.02-.1-.02-.13-.02.03.02.06.04.09.06h0Zm5.2,3.4c-.26.12-.66.27-1.59-.06-.05.1-.1.21-.16.33-.15.32-.32.65-.47.9.78.16,1.41.07,1.6-.21l.62-.96h0Zm-2.25-.29c-.24-.06-.5-.13-1.05-.52-.77-.54-1.12-1.32-1.57-2.03-.12.12-.23.24-.44.52.05.06.08.16.04.29-.05.15-.21.17-.3.08-.24.34-.4.53-.35.66,0,.02.02.03.03.05.01.02.02.03.03.05.04.07.08.13.13.2.47.68.9,1.12,1.64,1.6.32.2.55.29.75.34.1,0,.36.06.48-.07.02-.03.08-.13.16-.26-.02-.01-.04-.02-.06-.04-.24-.15-.55-.38-.6-.44-.06-.05-.09-.14-.03-.26.07-.14.17-.18.25-.14h0c.19.13.29.17.7.39.08-.15.15-.29.21-.42h0Zm-3.04-3.01c-.24.27-.55.65-.77.98-.08.12-.15.23-.22.34-.03-.07-.06-.14-.09-.21-.36-.9.45-1.49,1.07-1.11h0Zm1,2.5c.11-.31-.22-.5-.33-.17-.11.32.25.4.33.17h0Zm2.89,1.42c-.07.21-.38.15-.27-.15.1-.3.37-.14.27.15h0Zm.89.09c-.07.2-.27.17-.17-.1.1-.28.26-.16.17.1Z"/><path class="cls-18" d="m9.24,15.87l1.06-.18s-.03.94.1,1.71l-1.19.14c-.02-.19-.03-.44-.03-.71,0-.69.07-.96.07-.96h0Zm1.19,1.71c.02.1.04.19.07.27l-1.24.16s-.02-.11-.04-.29l1.21-.14h0Zm1.86,4.17s.33.47.73.76l-.77,1.03-.82-.75s.22-.39.4-.6c.19-.21.46-.44.46-.44h0Zm-.96.96s.11-.23.41-.55c.3-.31.47-.46.47-.46l-.06-.1s-.2.08-.49.39c-.28.31-.46.6-.46.6l.12.11h0Zm.87-.21c.11-.31-.22-.5-.33-.17-.11.32.25.4.33.17Z"/><path class="cls-7" d="m14.31,22.86c-.26-.07-.56-.14-.77-.28-.91-.62-1.26-1.37-1.52-1.83-.08-.15-.18-.28-.28-.4.06-.04.11-.06.15-.07.32.35.58.81.85,1.19.28.39.59.75,1.12,1.05.15.08.33.1.51.14,0,.02,0,.04,0,.05,0,.03-.03.08-.07.15h0Zm-2.75-10.07c-.32.45-.79,1.39-.91,2.48-.13,1.15.05,3.09.98,4.35.11,0,.35,0,.57.09-.24-.14-.38-.2-.67-.65-.28-.45-.68-1.75-.69-3.21-.01-1.45.49-2.27.8-2.81.08-.14.19-.26.3-.36-.13.02-.26.06-.37.11h0Zm.89,7.31c.26.24.38.64.65,1,.31.42.58.45.75.63.05-.03.23-.02.28-.03-.87-.6-.95-.88-1.15-1.26-.2-.38-.49-.61-.68-.7.11.08.17.28.17.36h0Zm-.4.19c.09.09.18.19.28.31.43.53.87,1.23,1.11,1.44.33.28.66.44.81.41-.07-.07-.18-.16-.26-.23-.14-.07-.47-.36-.76-.76-.29-.4-.65-.8-.9-1.08-.07-.02-.22-.08-.28-.09h0Zm4.62,2.77s-.33.28-.94.2c-.28-.04-.46-.08-.76-.18.03-.07.05-.13.06-.2.19.07.37.13.54.16.34.07.65.03.74.03.23-.02.35-.01.35-.01h0Zm-4.88-.56c.02.15.24.22.33.1-.13.09-.34-.02-.25-.28.03-.08.07-.13.11-.15-.13.07-.21.22-.19.32Z"/><path class="cls-14" d="m14.31,22.86c-.26-.07-.56-.14-.77-.28-.02-.02-.04-.03-.06-.05v-.27c.12.09.25.18.39.26.15.08.33.1.51.14,0,.02,0,.04,0,.05,0,.03-.03.08-.07.15h0Zm-2.88-9.44l-.16-.15c.1-.19.2-.36.29-.48.12-.05.24-.09.37-.11-.11.1-.21.22-.3.36-.06.11-.14.24-.21.38h0Zm-.69.68c.16-.49.36-.88.52-1.14-.31.2-.6.47-.96.64-.26.12-.49.15-.68.14-.74,1.35-.79,3.03-.67,3.86.24,1.62.97,2.69.97,2.69.22-.56.94-.76,1.5-.51.02-.02.04-.04.06-.05-.08-.12-.22-.34-.35-.63-.41.1-.82.67-1.49.33-.68-1.15-.67-2.79-.57-3.52.1-.73.26-1.23.33-1.42.54.05,1.09-.23,1.35-.38h0Zm1.1,6.74c-.07-.13-.15-.25-.23-.37-.12.12-.23.24-.44.52.05.06.08.16.04.29-.05.15-.21.17-.3.08-.24.34-.4.53-.35.66,0,.02.02.03.03.05.01.02.02.03.03.05.04.07.08.13.13.2.47.68.9,1.12,1.64,1.6.32.2.55.29.75.34.1,0,.36.06.48-.07.02-.03.08-.13.16-.26-.02-.01-.04-.02-.06-.04-.24-.15-.55-.38-.6-.44-.04-.03-.06-.08-.06-.15-.13.2-.28.4-.41.58-.67-.26-1.51-1.14-1.76-1.5-.02-.03-.05-.07-.07-.1.47-.3.24-.89,1.03-1.42h0Zm1.39,2.19s.07,0,.1,0h0c.19.13.29.17.7.39.08-.15.15-.29.21-.42-.19-.05-.4-.1-.77-.34-.03.05-.12.18-.24.35h0Zm.25-.97c.32.26.63.4.77.38-.07-.07-.18-.16-.26-.23-.1-.05-.3-.22-.51-.46v.31h0Zm0-.6v-.28c.15.15.35.31.65.51-.05,0-.23,0-.28.03-.09-.1-.22-.16-.37-.26h0Zm-3.37-.41c.09-.15.32-.5.49-.67.16-.15.37-.35.48-.45.04.02.08.04.12.06-.24.27-.55.65-.77.98-.08.12-.15.23-.22.34-.03-.07-.06-.14-.09-.21,0-.02-.01-.03-.02-.05h0Zm2.17,1.18c.07.18-.02.38-.19.38h0s.09-.06.12-.12c.08-.24-.09-.4-.22-.32.1-.08.26-.04.3.06h0Zm4.39.82s-.33.28-.94.2c-.28-.04-.46-.08-.76-.18.03-.07.05-.13.06-.2.19.07.37.13.54.16.34.07.65.03.74.03.23-.02.35-.01.35-.01h0Zm-5.38-3.16s-.07-.05-.09-.06c.04,0,.08,0,.13.02-.01.01-.03.03-.04.04h0Zm5.2,3.4c-.26.12-.66.27-1.59-.06-.05.1-.1.21-.16.33-.15.32-.32.65-.47.9.78.16,1.41.07,1.6-.21l.62-.96h0Zm-1.4.61c-.07.21-.38.15-.27-.15.1-.3.37-.14.27.15h0Zm.89.09c-.07.2-.27.17-.17-.1.1-.28.26-.16.17.1h0Zm-4.12-3.51c-.04-.05-.08-.1-.12-.15.06-.04.11-.06.15-.07.04.04.07.08.1.12-.04.01-.09.04-.14.1h0Zm.46-.13s-.06.02-.11.02h-.06s-.07-.07-.1-.11c.06,0,.2.06.27.09Z"/></svg>