<svg preserveAspectRatio="none" width="100%" height="100%" overflow="visible" style="display: block;" viewBox="0 0 11.6667 14.3333" fill="none" xmlns="http://www.w3.org/2000/svg">
<path id="Vector" fill-rule="evenodd" clip-rule="evenodd" d="M0 5.92886C0 2.66285 2.60334 0 5.83333 0C9.06333 0 11.6667 2.66285 11.6667 5.92886C11.6667 7.5056 11.2173 9.19861 10.423 10.6612C9.62959 12.1221 8.47042 13.3915 7.02034 14.0693C6.26704 14.4214 5.39962 14.4214 4.64633 14.0693C3.19625 13.3915 2.03708 12.1221 1.2437 10.6612C0.449352 9.19861 0 7.5056 0 5.92886ZM5.83333 1C3.17229 1 1 3.19832 1 5.92886C1 7.32691 1.40176 8.85694 2.12247 10.184C2.84416 11.5128 3.86401 12.5998 5.06976 13.1633C5.5547 13.39 6.11197 13.39 6.5969 13.1633C7.80265 12.5998 8.82251 11.5128 9.5442 10.184C10.2649 8.85694 10.6667 7.32691 10.6667 5.92886C10.6667 3.19832 8.49438 1 5.83333 1ZM5.83333 4.33333C5.00491 4.33333 4.33333 5.00491 4.33333 5.83333C4.33333 6.66176 5.00491 7.33333 5.83333 7.33333C6.66176 7.33333 7.33333 6.66176 7.33333 5.83333C7.33333 5.00491 6.66176 4.33333 5.83333 4.33333ZM3.33333 5.83333C3.33333 4.45262 4.45262 3.33333 5.83333 3.33333C7.21405 3.33333 8.33333 4.45262 8.33333 5.83333C8.33333 7.21404 7.21405 8.33333 5.83333 8.33333C4.45262 8.33333 3.33333 7.21404 3.33333 5.83333Z" fill="var(--fill-0, #494D4D)"/>
</svg>
