<svg preserveAspectRatio="none" width="100%" height="100%" overflow="visible" style="display: block;" viewBox="0 0 15.1252 18" fill="none" xmlns="http://www.w3.org/2000/svg">
<path id="Vector" d="M8.74902 3.07636C5.35773 0.815228 3.66208 -0.315343 2.2759 0.0764953C1.84123 0.199359 1.43835 0.414962 1.09498 0.708459C-1.49074e-07 1.64442 0 3.68242 0 7.75847V10.2421C0 14.3177 -2.23611e-07 16.3556 1.09489 17.2915C1.43822 17.5849 1.84108 17.8005 2.27572 17.9235C3.66179 18.3154 5.35736 17.185 8.74865 14.9245L10.6114 13.6828C13.4116 11.8162 14.8118 10.8829 15.065 9.61137C15.1453 9.20833 15.1453 8.79328 15.065 8.39024C14.8119 7.11871 13.4118 6.18526 10.6118 4.31834L8.74902 3.07636Z" fill="var(--fill-0, white)"/>
</svg>
