<svg preserveAspectRatio="none" width="100%" height="100%" overflow="visible" style="display: block;" viewBox="0 0 13.125 16.125" fill="none" xmlns="http://www.w3.org/2000/svg">
<path id="Vector (Stroke)" fill-rule="evenodd" clip-rule="evenodd" d="M6.52019 2.4121e-07H6.60481C7.98313 -1.16499e-05 9.07486 -2.11224e-05 9.92927 0.114851C10.8086 0.233072 11.5203 0.48216 12.0816 1.04343C12.6428 1.60471 12.8919 2.31642 13.0101 3.19573C13.125 4.05014 13.125 5.14187 13.125 6.52019V9.60481C13.125 10.9831 13.125 12.0749 13.0101 12.9293C12.8919 13.8086 12.6428 14.5203 12.0816 15.0816C11.5203 15.6428 10.8086 15.8919 9.92927 16.0101C9.07486 16.125 7.98313 16.125 6.60481 16.125H6.52019C5.14187 16.125 4.05014 16.125 3.19573 16.0101C2.31642 15.8919 1.60471 15.6428 1.04343 15.0816C0.48216 14.5203 0.233072 13.8086 0.114851 12.9293C-2.11224e-05 12.0749 -1.16499e-05 10.9831 2.4121e-07 9.60481V6.52019C-1.16499e-05 5.14187 -2.11224e-05 4.05014 0.114851 3.19573C0.233072 2.31642 0.48216 1.60471 1.04343 1.04343C1.60471 0.48216 2.31642 0.233072 3.19573 0.114851C4.05014 -2.11224e-05 5.14187 -1.16499e-05 6.52019 2.4121e-07ZM3.34564 1.22982C2.59107 1.33127 2.15634 1.52152 1.83893 1.83893C1.52152 2.15634 1.33127 2.59107 1.22982 3.34564C1.1262 4.11638 1.125 5.13238 1.125 6.5625V9.5625C1.125 10.9926 1.1262 12.0086 1.22982 12.7794C1.33127 13.5339 1.52152 13.9687 1.83893 14.2861C2.15634 14.6035 2.59107 14.7937 3.34564 14.8952C4.11639 14.9988 5.13239 15 6.5625 15C7.99262 15 9.00862 14.9988 9.77936 14.8952C10.5339 14.7937 10.9687 14.6035 11.2861 14.2861C11.6035 13.9687 11.7937 13.5339 11.8952 12.7794C11.9988 12.0086 12 10.9926 12 9.5625V6.5625C12 5.13239 11.9988 4.11639 11.8952 3.34564C11.7937 2.59107 11.6035 2.15634 11.2861 1.83893C10.9687 1.52152 10.5339 1.33127 9.77936 1.22982C9.00862 1.1262 7.99262 1.125 6.5625 1.125C5.13239 1.125 4.11639 1.1262 3.34564 1.22982ZM3.75 13.3125C3.75 13.0018 4.00184 12.75 4.3125 12.75H8.8125C9.12316 12.75 9.375 13.0018 9.375 13.3125C9.375 13.6232 9.12316 13.875 8.8125 13.875H4.3125C4.00184 13.875 3.75 13.6232 3.75 13.3125Z" fill="var(--fill-0, #12A70A)"/>
</svg>
