<svg preserveAspectRatio="none" width="100%" height="100%" overflow="visible" style="display: block;" viewBox="0 0 16.2159 21.7339" fill="none" xmlns="http://www.w3.org/2000/svg">
<path id="vector" d="M10.0594 1.04635H6.80377V17.6159C6.80377 18.1983 6.80377 18.76 6.60192 19.3211C6.27309 20.2167 5.57367 21.0253 4.64147 21.3842C3.24209 21.923 2.14819 21.8632 0.843214 21.0368C0.519262 20.823 0.234359 20.5594 0 20.2567C1.1118 20.8251 2.10695 20.8152 3.33975 20.341C4.27141 19.9821 4.97192 19.1734 5.29965 18.2774C5.50476 17.7178 5.50205 17.1546 5.50205 16.5726V0H9.99756C9.99756 0 9.9471 0.411884 10.0594 1.04635ZM16.2159 5.99104V6.9131C15.6881 6.79263 15.1765 6.61447 14.6911 6.38213C13.7508 5.93228 13.0183 5.19952 12.875 5.0513C13.0412 5.1559 13.2137 5.25106 13.3916 5.33629C14.5348 5.88339 15.6608 6.04669 16.2159 5.99104Z" fill="var(--fill-0, #69C9D0)"/>
</svg>
