<svg preserveAspectRatio="none" width="100%" height="100%" overflow="visible" style="display: block;" viewBox="0 0 16.1251 15.5625" fill="none" xmlns="http://www.w3.org/2000/svg">
<path id="Vector" fill-rule="evenodd" clip-rule="evenodd" d="M5.4462 1.27377C5.78723 1.55542 6.22173 1.6875 6.5625 1.6875C6.87316 1.6875 7.125 1.93934 7.125 2.25C7.125 2.56066 6.87316 2.8125 6.5625 2.8125C6.02216 2.8125 5.39889 2.63185 4.875 2.25338V6.75C4.875 6.86964 4.83765 6.98055 4.77397 7.07172C4.47422 8.07843 3.54159 8.8125 2.4375 8.8125C1.09131 8.8125 0 7.72119 0 6.375C0 5.02881 1.09131 3.9375 2.4375 3.9375C2.92074 3.9375 3.37114 4.07812 3.75 4.32068V0H4.875C4.875 0.598386 5.1213 1.00545 5.4462 1.27377ZM3.75 6.375C3.75 5.65013 3.16237 5.0625 2.4375 5.0625C1.71263 5.0625 1.125 5.65013 1.125 6.375C1.125 7.09987 1.71263 7.6875 2.4375 7.6875C3.16237 7.6875 3.75 7.09987 3.75 6.375ZM13.742 1.45581C13.2382 1.5842 12.5786 1.85866 11.6214 2.25931L10.1214 2.88713C9.66373 3.07869 9.36208 3.20577 9.14035 3.32823C8.93065 3.44404 8.83981 3.53114 8.78204 3.61795C8.72426 3.70477 8.67899 3.82219 8.65312 4.06034C8.62577 4.31215 8.625 4.63948 8.625 5.13563V6.66917L14.9998 4.11926C14.9984 3.28776 14.9886 2.68884 14.9224 2.24139C14.848 1.73801 14.7204 1.56563 14.5819 1.47344C14.4434 1.38126 14.2351 1.33016 13.742 1.45581ZM16.125 4.48689V4.46068C16.125 3.48162 16.125 2.6832 16.0353 2.07675C15.9426 1.44969 15.7356 0.889894 15.2052 0.536886C14.6748 0.183878 14.0785 0.209123 13.4642 0.365653C12.8702 0.517037 12.1337 0.825316 11.2305 1.20334L9.65997 1.8607C9.23664 2.03786 8.87798 2.18796 8.59648 2.34343C8.29696 2.50884 8.03896 2.70394 7.84548 2.99466C7.652 3.28539 7.57164 3.5987 7.5347 3.93886C7.49997 4.25857 7.49998 4.64736 7.5 5.10627V7.48723C7.4998 7.49584 7.4998 7.50447 7.5 7.51311V11.0707C7.12114 10.8281 6.67074 10.6875 6.1875 10.6875C4.84131 10.6875 3.75 11.7788 3.75 13.125C3.75 14.4712 4.84131 15.5625 6.1875 15.5625C7.53369 15.5625 8.625 14.4712 8.625 13.125C8.625 12.9975 8.61521 12.8722 8.59633 12.75H8.625V7.88083L15 5.33083V9.57068C14.6211 9.32812 14.1707 9.1875 13.6875 9.1875C12.3413 9.1875 11.25 10.2788 11.25 11.625C11.25 12.9712 12.3413 14.0625 13.6875 14.0625C15.0337 14.0625 16.125 12.9712 16.125 11.625C16.125 11.5373 16.1204 11.4507 16.1113 11.3654H16.125V4.51276C16.1252 4.50416 16.1252 4.49553 16.125 4.48689ZM13.6875 10.3125C12.9626 10.3125 12.375 10.9001 12.375 11.625C12.375 12.3499 12.9626 12.9375 13.6875 12.9375C14.4124 12.9375 15 12.3499 15 11.625C15 10.9001 14.4124 10.3125 13.6875 10.3125ZM6.1875 11.8125C5.46263 11.8125 4.875 12.4001 4.875 13.125C4.875 13.8499 5.46263 14.4375 6.1875 14.4375C6.91237 14.4375 7.5 13.8499 7.5 13.125C7.5 12.4001 6.91237 11.8125 6.1875 11.8125Z" fill="var(--fill-0, #12A70A)"/>
</svg>
