<svg preserveAspectRatio="none" width="100%" height="100%" overflow="visible" style="display: block;" viewBox="0 0 21.5001 17.5" fill="none" xmlns="http://www.w3.org/2000/svg">
<path id="Vector (Stroke)" fill-rule="evenodd" clip-rule="evenodd" d="M8.69001 3.18018e-07H12.8101C14.6514 -1.54176e-05 16.1096 -2.79397e-05 17.2507 0.153111C18.4249 0.310684 19.3751 0.642637 20.1246 1.39075C21.2388 2.5029 21.4446 4.07752 21.4996 6.22524C21.5185 6.96149 20.936 7.41342 20.449 7.54077C19.9101 7.68171 19.5148 8.17143 19.5148 8.75C19.5148 9.32857 19.9101 9.81829 20.449 9.95924C20.936 10.0866 21.5185 10.5385 21.4996 11.2748C21.4446 13.4225 21.2388 14.9971 20.1246 16.1092C19.3751 16.8574 18.4249 17.1893 17.2507 17.3469C16.1096 17.5 14.6514 17.5 12.8101 17.5H8.69001C6.84869 17.5 5.39052 17.5 4.24938 17.3469C3.0752 17.1893 2.12495 16.8574 1.37545 16.1092C0.261246 14.9971 0.0554502 13.4225 0.000446153 11.2748C-0.0184098 10.5385 0.564095 10.0866 1.05104 9.95924C1.59 9.81829 1.98524 9.32857 1.98524 8.75C1.98524 8.17143 1.59 7.68171 1.05104 7.54077C0.564095 7.41342 -0.0184098 6.96149 0.000446153 6.22524C0.0554502 4.07752 0.261247 2.5029 1.37545 1.39075C2.12495 0.642637 3.0752 0.310684 4.24938 0.153111C5.39052 -2.79397e-05 6.84869 -1.54176e-05 8.69001 3.18018e-07ZM4.44889 1.63978C3.44053 1.7751 2.85936 2.02894 2.43512 2.45239C1.8073 3.07906 1.56745 4.02767 1.50425 6.10995C2.64772 6.44337 3.48524 7.49748 3.48524 8.75C3.48524 10.0025 2.64772 11.0566 1.50425 11.3901C1.56745 13.4723 1.8073 14.4209 2.43512 15.0476C2.85936 15.4711 3.44053 15.7249 4.44889 15.8602C5.47868 15.9984 6.83607 16 8.74634 16H12.7537C14.664 16 16.0214 15.9984 17.0512 15.8602C18.0595 15.7249 18.6407 15.4711 19.0649 15.0476C19.6928 14.4209 19.9326 13.4723 19.9958 11.3901C18.8524 11.0566 18.0148 10.0025 18.0148 8.75C18.0148 7.49748 18.8524 6.44337 19.9958 6.10995C19.9326 4.02767 19.6928 3.07906 19.0649 2.45239C18.6407 2.02894 18.0595 1.7751 17.0512 1.63978C16.0214 1.50159 14.664 1.5 12.7537 1.5H8.74634C6.83607 1.5 5.47868 1.50159 4.44889 1.63978ZM10.75 6.78449C10.6919 6.88513 10.6273 7.00103 10.5511 7.13769L10.4528 7.31405C10.4458 7.3265 10.4384 7.3401 10.4304 7.35466C10.3519 7.49827 10.2219 7.7361 10.005 7.90071C9.78363 8.06877 9.51734 8.12659 9.36163 8.1604C9.34603 8.16379 9.33154 8.16693 9.31832 8.16992L9.12741 8.21312C8.95224 8.25275 8.80955 8.28509 8.68754 8.31575C8.7669 8.41345 8.86998 8.53474 9.00407 8.69154L9.13421 8.84373C9.14345 8.85452 9.15349 8.86609 9.16418 8.8784C9.27211 9.00273 9.44638 9.20346 9.52697 9.46261C9.6066 9.71869 9.57913 9.98243 9.5618 10.1488C9.56007 10.1654 9.55845 10.181 9.55704 10.1956L9.53736 10.3987C9.51912 10.5869 9.50493 10.7372 9.49549 10.8594C9.5997 10.8135 9.71824 10.7589 9.85907 10.6941L10.0378 10.6118C10.0501 10.6061 10.0636 10.5998 10.0782 10.5929C10.2217 10.5252 10.4714 10.4075 10.75 10.4075C11.0287 10.4075 11.2784 10.5252 11.4219 10.5929C11.4365 10.5998 11.45 10.6061 11.4623 10.6118L11.641 10.6941C11.7818 10.7589 11.9004 10.8135 12.0046 10.8594C11.9951 10.7372 11.981 10.5869 11.9627 10.3987L11.943 10.1956C11.9416 10.1811 11.94 10.1654 11.9383 10.1488C11.9209 9.98243 11.8935 9.71869 11.9731 9.46261C12.0537 9.20346 12.228 9.00273 12.3359 8.87841C12.3466 8.86609 12.3566 8.85452 12.3659 8.84373L12.496 8.69154C12.6301 8.53474 12.7332 8.41345 12.8125 8.31576C12.6905 8.28509 12.5478 8.25275 12.3727 8.21312L12.1818 8.16992C12.1685 8.16693 12.154 8.16379 12.1385 8.1604C11.9827 8.12659 11.7164 8.06877 11.4951 7.90071C11.2782 7.7361 11.1482 7.49828 11.0696 7.35466C11.0617 7.3401 11.0542 7.3265 11.0473 7.31405L10.949 7.13769C10.8728 7.00103 10.8082 6.88513 10.75 6.78449ZM9.76353 5.54963C9.9357 5.32481 10.2483 5 10.75 5C11.2517 5 11.5644 5.32481 11.7365 5.54963C11.9009 5.76421 12.0664 6.06124 12.236 6.36577C12.2437 6.37961 12.2515 6.39347 12.2592 6.40734L12.3575 6.58369C12.3803 6.62459 12.3982 6.65677 12.4139 6.6843C12.4413 6.69071 12.4731 6.69792 12.5128 6.70691L12.7037 6.7501C12.7193 6.75364 12.735 6.75717 12.7506 6.7607C13.0784 6.83478 13.4042 6.90839 13.6543 7.00695C13.9304 7.11577 14.3047 7.3277 14.449 7.79161C14.5907 8.24734 14.4119 8.63336 14.2557 8.88146C14.1111 9.11108 13.8914 9.36786 13.6665 9.63075C13.6564 9.64263 13.6462 9.65452 13.636 9.66642L13.5059 9.81861C13.4714 9.85894 13.4454 9.88935 13.4235 9.91567C13.4265 9.952 13.4306 9.99433 13.436 10.0509L13.4557 10.254C13.4572 10.2695 13.4587 10.2849 13.4602 10.3004C13.4944 10.6523 13.5274 10.9924 13.5153 11.2645C13.5026 11.5497 13.4341 11.9815 13.047 12.2754C12.6476 12.5786 12.2065 12.5126 11.9267 12.4324C11.669 12.3586 11.3645 12.2182 11.0577 12.0769C11.0431 12.0701 11.0284 12.0634 11.0137 12.0566L10.8349 11.9743C10.8015 11.9589 10.774 11.9463 10.75 11.9354C10.7261 11.9463 10.6986 11.9589 10.6652 11.9743L10.4864 12.0566C10.4717 12.0634 10.457 12.0701 10.4423 12.0769C10.1356 12.2182 9.83108 12.3586 9.57334 12.4324C9.29361 12.5126 8.85251 12.5786 8.4531 12.2754C8.06593 11.9815 7.99747 11.5497 7.98476 11.2645C7.97265 10.9924 8.00567 10.6523 8.03985 10.3004C8.04135 10.2849 8.04285 10.2695 8.04435 10.254L8.06403 10.0509C8.06951 9.99433 8.0736 9.952 8.07658 9.91567C8.05469 9.88935 8.0287 9.85894 7.99421 9.81861L7.86407 9.66642C7.85389 9.65452 7.84371 9.64262 7.83354 9.63074C7.60863 9.36786 7.38894 9.11108 7.2444 8.88146C7.08821 8.63336 6.90938 8.24734 7.05109 7.79161C7.19535 7.32771 7.56966 7.11577 7.8458 7.00695C8.09589 6.90839 8.42168 6.83478 8.74949 6.7607C8.76512 6.75717 8.78076 6.75364 8.79639 6.7501L8.98729 6.70691C9.02702 6.69792 9.05881 6.69071 9.08614 6.6843C9.10183 6.65677 9.11979 6.62459 9.14259 6.58369L9.2409 6.40734C9.24863 6.39347 9.25635 6.37961 9.26406 6.36576C9.43372 6.06124 9.59921 5.76421 9.76353 5.54963Z" fill="var(--fill-0, white)"/>
</svg>
