<svg preserveAspectRatio="none" width="100%" height="100%" overflow="visible" style="display: block;" viewBox="0 0 111.69 82.99" fill="none" xmlns="http://www.w3.org/2000/svg">
<g id="Group">
<path id="Vector" d="M2.54 3.97L92.84 1.82C92.84 1.82 93.54 37.5 92.53 37.49C91.52 37.48 0 38.45 0 38.45L2.54 3.97Z" fill="var(--fill-0, #FCD900)"/>
<path id="Vector_2" d="M1.07 36.53L3.33 1.98L93.92 0V0.19C94.03 6.03 94.53 35.2 93.6 36.13C93.55 36.18 93.49 36.21 93.43 36.21C93.41 36.21 93.39 36.21 93.35 36.21C90.19 36.21 2.18 36.53 1.28 36.54H1.08L1.07 36.53ZM3.68 2.35L1.48 36.15C6.25 36.13 90.23 35.82 93.35 35.82C93.95 34.41 93.8 14.04 93.55 0.38L3.68 2.35Z" fill="var(--fill-0, #221F1F)"/>
<path id="Vector_3" d="M77.63 19L77.7 10.8L73.18 10.76L73 31.25L77.52 31.29L77.6 22.15L82.79 22.2L82.71 31.34L87.23 31.38L87.41 10.89L82.89 10.85L82.82 19.05L77.63 19ZM57.09 10.62L57.06 14.02L62.09 14.06L61.94 31.15L66.46 31.19L66.61 14.1L71.64 14.14L71.67 10.74L57.09 10.61V10.62ZM51.34 10.57L51.22 24.82C51.2 27.09 50.29 28.33 48.31 28.32C46.66 28.31 45.53 27.3 45.55 24.78L45.67 10.53L41.15 10.49L41.02 25.03C40.99 28.89 43.36 31.35 48.33 31.39C53.84 31.44 55.7 28.22 55.72 25.15L55.85 10.61L51.33 10.57H51.34ZM30.76 31.22C38.22 31.29 38.26 26.06 38.31 20.7C38.36 15.28 38.4 10.11 30.95 10.05C23.49 9.98 23.45 15.15 23.4 20.57C23.35 25.94 23.31 31.16 30.76 31.22ZM30.79 28.16C28.24 28.14 27.93 25.86 27.98 20.61C28.03 15.36 28.38 13.09 30.92 13.11C33.47 13.13 33.78 15.41 33.73 20.66C33.68 25.91 33.33 28.18 30.79 28.16ZM21.07 25.21C21.13 18.76 12.02 19.03 12.05 15.14C12.06 13.72 12.94 12.96 14.41 12.97C16.24 12.99 16.5 14.55 16.48 16.08L20.88 16.12C21.22 11.84 19.05 9.95 14.65 9.91C9.14 9.86 7.5 12.4 7.47 15.61C7.42 21.71 16.52 22.02 16.49 25.71C16.48 27.1 15.72 28.03 14.19 28.02C11.7 28 11.63 26.35 11.64 24.39L7.12 24.35C6.85 27.9 7.87 31.03 13.47 31.07C16.92 31.1 21.02 30.51 21.07 25.21Z" fill="var(--fill-0, white)"/>
<path id="Vector_4" d="M76.81 17.99L76.88 9.79L72.36 9.75L72.18 30.24L76.7 30.28L76.78 21.14L81.97 21.19L81.89 30.33L86.41 30.37L86.59 9.88L82.07 9.84L82 18.04L76.81 17.99ZM56.28 9.6L56.25 13L61.28 13.04L61.13 30.13L65.65 30.17L65.8 13.08L70.83 13.12L70.86 9.72L56.28 9.59V9.6ZM50.52 9.55L50.4 23.8C50.38 26.07 49.47 27.31 47.49 27.3C45.84 27.29 44.71 26.28 44.73 23.76L44.85 9.51L40.33 9.47L40.2 24.01C40.17 27.87 42.54 30.33 47.51 30.37C53.02 30.42 54.88 27.2 54.9 24.13L55.03 9.59L50.51 9.55H50.52ZM29.94 30.21C37.4 30.28 37.44 25.05 37.49 19.69C37.54 14.27 37.58 9.1 30.13 9.04C22.67 8.97 22.63 14.14 22.58 19.56C22.53 24.93 22.49 30.15 29.94 30.21ZM29.97 27.15C27.42 27.13 27.11 24.85 27.16 19.6C27.21 14.35 27.56 12.08 30.1 12.1C32.65 12.12 32.96 14.4 32.91 19.65C32.86 24.9 32.51 27.17 29.97 27.15ZM20.26 24.19C20.32 17.74 11.21 18.01 11.24 14.11C11.25 12.69 12.13 11.93 13.6 11.94C15.43 11.96 15.69 13.52 15.67 15.05L20.07 15.09C20.41 10.81 18.24 8.92 13.84 8.88C8.33 8.83 6.69 11.37 6.66 14.58C6.6 21.41 15.71 21.15 15.68 24.68C15.67 26.07 14.91 27 13.38 26.99C10.89 26.97 10.82 25.32 10.83 23.36L6.31 23.32C6.04 26.87 7.06 30 12.66 30.04C16.11 30.07 20.21 29.48 20.26 24.18" fill="var(--fill-0, #221F1F)"/>
<path id="Vector_5" d="M14.14 33.84L108.62 34.66C108.62 34.66 109.33 65.57 108.36 65.56C107.39 65.56 12.26 67.84 12.26 67.84L14.14 33.83V33.84Z" fill="var(--fill-0, #EB242A)"/>
<path id="Vector_6" d="M15.4491 65.7538L15.4394 66.1837L31.5553 66.5466L31.565 66.1167L15.4491 65.7538Z" fill="var(--fill-0, #221F1F)"/>
<path id="Vector_7" d="M111.69 68.34L80.34 67.63V67.2L111.25 67.9C111.19 64.99 110.61 38.98 110.63 36.65C107.6 35.86 47.71 35.49 15.89 35.41C15.89 38.12 15.83 65.57 15.82 66.4H15.39C15.39 65.53 15.46 35.5 15.46 35.19V34.98H15.67C15.91 34.98 39.48 35.05 62.87 35.24C110.29 35.63 110.77 36.14 110.98 36.36L111.04 36.43V36.54C110.99 37.59 111.66 67.81 111.67 68.11V68.33L111.69 68.34Z" fill="var(--fill-0, #221F1F)"/>
<path id="Vector_8" d="M103.8 61.69L103.83 58.55L96.63 58.49L96.68 52.52L103.11 52.58L103.14 49.44L96.71 49.38L96.75 44.34L103.72 44.4L103.75 41.26L92.45 41.16L92.27 61.59L103.8 61.69ZM89.34 61.56L89.52 41.13L85.19 41.09L85.01 61.52L89.34 61.56ZM82.67 55.93C82.73 49.5 74 49.77 74.04 45.89C74.05 44.47 74.89 43.72 76.3 43.73C78.05 43.75 78.3 45.3 78.28 46.83L82.49 46.87C82.81 42.6 80.74 40.72 76.52 40.68C71.24 40.63 69.67 43.16 69.64 46.36C69.59 52.45 78.31 52.75 78.27 56.43C78.26 57.82 77.53 58.75 76.07 58.73C73.69 58.71 73.62 57.07 73.63 55.11L69.3 55.07C69.04 58.61 70.02 61.72 75.38 61.77C78.68 61.8 82.61 61.21 82.66 55.92M67.44 55.8C67.5 49.37 58.77 49.64 58.81 45.76C58.82 44.34 59.66 43.59 61.07 43.6C62.82 43.62 63.07 45.17 63.05 46.7L67.26 46.74C67.58 42.47 65.51 40.59 61.29 40.55C56.01 40.5 54.44 43.03 54.41 46.23C54.36 52.32 63.08 52.62 63.04 56.3C63.03 57.69 62.3 58.61 60.84 58.6C58.46 58.58 58.39 56.94 58.4 54.98L54.07 54.94C53.81 58.48 54.79 61.59 60.15 61.64C63.45 61.67 67.38 61.08 67.43 55.79M47.57 40.77L47.45 54.98C47.43 57.24 46.56 58.48 44.66 58.47C43.08 58.46 42 57.46 42.02 54.94L42.14 40.73L37.81 40.69L37.68 55.18C37.65 59.03 39.92 61.48 44.68 61.52C49.96 61.57 51.74 58.36 51.76 55.3L51.89 40.81L47.56 40.77H47.57ZM29.84 53.37L25.71 53.33L27.77 44.51H27.83L29.85 53.36L29.84 53.37ZM23.61 60.99L24.83 56.47L30.74 56.52L31.85 61.06L36.41 61.1L30.97 40.62L25.26 40.57L19.34 60.95L23.61 60.99Z" fill="var(--fill-0, #010101)"/>
<path id="Vector_9" d="M102.98 61.04L103.01 57.9L95.81 57.84L95.86 51.87L102.29 51.93L102.32 48.79L95.89 48.73L95.93 43.69L102.9 43.75L102.93 40.61L91.63 40.51L91.45 60.94L102.98 61.04ZM88.52 60.92L88.7 40.49L84.37 40.45L84.19 60.88L88.52 60.92ZM81.86 55.29C81.92 48.86 73.19 49.13 73.23 45.25C73.24 43.83 74.08 43.08 75.49 43.09C77.24 43.11 77.49 44.66 77.47 46.19L81.68 46.23C82 41.96 79.93 40.08 75.71 40.04C70.43 39.99 68.86 42.52 68.83 45.72C68.78 51.81 77.5 52.11 77.46 55.79C77.45 57.18 76.72 58.11 75.26 58.09C72.88 58.07 72.81 56.43 72.82 54.47L68.49 54.43C68.23 57.97 69.21 61.08 74.57 61.13C77.87 61.16 81.8 60.57 81.85 55.28M66.62 55.15C66.68 48.72 57.95 48.99 57.99 45.11C58 43.69 58.84 42.94 60.25 42.95C62 42.97 62.25 44.52 62.23 46.05L66.44 46.09C66.76 41.82 64.69 39.94 60.47 39.9C55.19 39.85 53.62 42.38 53.59 45.58C53.54 51.67 62.26 51.97 62.22 55.65C62.21 57.04 61.48 57.96 60.02 57.95C57.64 57.93 57.57 56.29 57.58 54.33L53.25 54.29C52.99 57.83 53.97 60.94 59.33 60.99C62.63 61.02 66.56 60.43 66.61 55.14M46.76 40.12L46.64 54.33C46.62 56.59 45.75 57.83 43.85 57.82C42.27 57.81 41.19 56.81 41.21 54.29L41.33 40.08L37 40.04L36.87 54.53C36.84 58.38 39.11 60.83 43.87 60.87C49.15 60.92 50.93 57.71 50.95 54.65L51.08 40.16L46.75 40.12H46.76ZM29.03 52.73L24.9 52.69L26.96 43.87H27.02L29.04 52.72L29.03 52.73ZM22.8 60.34L24.02 55.82L29.93 55.87L31.04 60.41L35.6 60.45L30.16 39.97L24.45 39.92L18.53 60.3L22.8 60.34Z" fill="var(--fill-0, white)"/>
<path id="Vector_10" d="M30.38 64.78L29.82 76.77L81.24 82.99L84.76 76.49L78.35 65.75L30.38 64.78Z" fill="var(--fill-0, #40C4F1)"/>
<path id="Vector_11" d="M83.4 81.61H83.31L31.08 76.33L31.65 64.01L78.58 64.3L78.62 64.36L86.13 76.67L86.09 76.74L83.4 81.6V81.61ZM31.37 76.09L83.26 81.33L85.83 76.69L78.44 64.57L31.92 64.28L31.37 76.09Z" fill="var(--fill-0, #221F1F)"/>
<path id="Vector_12" d="M76.72 68.29L76.61 69.64L78.33 69.78L78.44 68.43L76.72 68.29ZM78.24 71.07L76.52 70.93L76.04 77.09L77.76 77.23L78.25 71.07H78.24ZM70.6 74.68C70.37 76.39 71.34 76.85 72.84 76.97C74.27 77.08 75.21 76.35 75.29 75.27C75.45 73.29 72.42 73.1 72.49 72.13C72.52 71.71 72.75 71.49 73.13 71.52C73.31 71.53 73.46 71.57 73.56 71.69C73.67 71.81 73.7 72.07 73.67 72.5L75.35 72.63C75.55 71.31 74.54 70.66 73.36 70.57C72.25 70.48 70.9 70.78 70.8 72.11C70.65 74.07 73.69 74.02 73.59 75.33C73.56 75.75 73.25 75.94 72.9 75.91C72.56 75.88 72.38 75.77 72.3 75.57C72.23 75.37 72.24 75.1 72.27 74.82L70.59 74.69L70.6 74.68ZM67.33 76.54C69.55 76.71 69.95 75.38 70.1 73.46C70.23 71.78 70.1 70.32 67.83 70.14C65.56 69.96 65.2 71.38 65.07 73.06C64.92 74.99 65.1 76.36 67.32 76.54M67.42 75.44C66.78 75.39 66.66 74.97 66.81 73.1C66.91 71.82 67.02 71.18 67.76 71.23C68.49 71.29 68.5 71.94 68.4 73.22C68.25 75.1 68.06 75.49 67.43 75.44M61.52 76.1C63.24 76.24 64.24 75.55 64.42 73.2L62.6 73.06C62.52 73.75 62.47 74.86 61.62 74.79C60.58 74.71 60.52 73.72 60.7 71.46C60.88 69.2 61.09 68.24 62.13 68.32C62.68 68.36 62.85 68.82 62.76 69.99L64.56 70.13C64.78 68.24 64.11 67.15 62.23 67C59.19 66.76 59.02 68.98 58.83 71.31C58.65 73.62 58.47 75.86 61.51 76.1M55.03 75.44L55.42 70.5C55.49 69.65 54.81 69.1 53.99 69.04C53.67 69.02 53.39 69.04 53.13 69.14C52.89 69.23 52.67 69.4 52.47 69.67H52.45L52.71 66.4L50.99 66.26L50.3 75.07L52.02 75.21L52.35 70.96C52.39 70.41 52.52 69.99 53.07 70.03C53.62 70.07 53.68 70.51 53.64 71.06L53.31 75.31L55.03 75.45V75.44ZM46.92 69.67L47.62 69.72L47.32 73.51C47.29 73.89 47.41 74.89 48.89 75.01C49.3 75.04 49.55 75.03 49.79 75.01L49.87 73.95C49.78 73.97 49.67 73.95 49.56 73.95C49 73.91 49.03 73.6 49.07 73.14L49.33 69.84L50.22 69.91L50.3 68.85L49.41 68.78L49.55 67.04L47.77 67.67L47.69 68.65L46.99 68.6L46.91 69.66L46.92 69.67ZM44.96 65.79L44.85 67.14L46.57 67.28L46.68 65.93L44.96 65.79ZM46.48 68.57L44.76 68.43L44.27 74.59L45.99 74.73L46.47 68.57H46.48ZM35.93 73.94L37.76 74.08L39.34 69.97H39.36L40.14 74.27L41.95 74.41L44.11 68.38L42.46 68.25L41.17 72.81H41.15L40.43 68.09L38.65 67.95L37.1 72.49H37.08L36.6 67.79L34.89 67.66L35.94 73.94H35.93Z" fill="var(--fill-0, #221F1F)"/>
</g>
</svg>
