<svg preserveAspectRatio="none" width="100%" height="100%" overflow="visible" style="display: block;" viewBox="0 0 21.404 23.9089" fill="none" xmlns="http://www.w3.org/2000/svg">
<path id="vector" d="M21.404 5.86675V9.20083C21.404 9.20083 19.8245 9.13894 18.6546 8.84147C17.0219 8.42543 15.9719 7.78732 15.9719 7.78732C15.9719 7.78732 15.2475 7.33227 15.1889 7.30003V16.09C15.1889 16.5794 15.0549 17.802 14.6463 18.8208C14.113 20.1548 13.2898 21.03 13.1384 21.2089C13.1384 21.2089 12.1368 22.3921 10.3711 23.1888C8.77966 23.9075 7.3819 23.8893 6.96355 23.9075C6.96355 23.9075 4.54785 24.0032 2.37308 22.5902L2.36223 22.5824C2.13262 22.3601 1.91648 22.1253 1.71489 21.8793C1.0209 21.0331 0.595492 20.0326 0.488598 19.747C0.488413 19.7458 0.488413 19.7446 0.488598 19.7434C0.316591 19.2473 -0.0447858 18.0558 0.00459153 16.9018C0.0919515 14.8658 0.808194 13.6161 0.997564 13.303C1.4991 12.4493 2.15141 11.6854 2.92545 11.0455C3.60851 10.4932 4.38272 10.0538 5.21635 9.74533C6.11752 9.38309 7.08253 9.18893 8.05961 9.17327V12.5484C8.05961 12.5484 6.27226 11.9816 4.84195 12.9853C3.84192 13.7279 3.31125 14.4524 3.15498 15.7463C3.14847 16.6985 3.3921 18.0459 4.72854 18.9446C4.88445 19.0434 5.03747 19.1311 5.18759 19.2077C5.42106 19.5112 5.70524 19.7757 6.02863 19.9904C7.33415 20.8168 8.42805 20.8745 9.82689 20.3378C10.7596 19.979 11.4618 19.1703 11.7873 18.2742C11.9919 17.7147 11.9892 17.1514 11.9892 16.569V0H15.2448C15.3794 0.765002 15.7516 1.854 16.7359 2.9326C17.1308 3.33985 17.5755 3.69991 18.0604 4.00495C18.2037 4.15317 18.9362 4.88593 19.8765 5.33577C20.3628 5.5683 20.8753 5.74646 21.404 5.86675V5.86675Z" fill="var(--fill-0, black)"/>
</svg>
