<svg preserveAspectRatio="none" width="100%" height="100%" overflow="visible" style="display: block;" viewBox="0 0 32 22.4052" fill="none" xmlns="http://www.w3.org/2000/svg">
<g id="g7433">
<path id="path7429" d="M31.3409 3.50575C30.9719 2.13508 29.8911 1.05436 28.5205 0.685335C26.0164 0 15.9999 0 15.9999 0C15.9999 0 5.9835 0 3.47939 0.658976C2.13508 1.028 1.028 2.13508 0.658976 3.50575C0 6.00986 0 11.2026 0 11.2026C0 11.2026 0 16.4217 0.658976 18.8994C1.028 20.2701 2.10872 21.3508 3.47939 21.7198C6.00986 22.4052 15.9999 22.4052 15.9999 22.4052C15.9999 22.4052 26.0164 22.4052 28.5205 21.7462C29.8911 21.3772 30.9719 20.2965 31.3409 18.9258C31.9999 16.4217 31.9999 11.2289 31.9999 11.2289C31.9999 11.2289 32.0262 6.00986 31.3409 3.50575Z" fill="var(--fill-0, #FF0000)"/>
<path id="polygon7431" d="M12.8104 6.40539V16.0001L21.1399 11.2027L12.8104 6.40539Z" fill="var(--fill-0, white)"/>
</g>
</svg>
