<svg preserveAspectRatio="none" width="100%" height="100%" overflow="visible" style="display: block;" viewBox="0 0 9.3588 14.4547" fill="none" xmlns="http://www.w3.org/2000/svg">
<path id="vector" d="M6.51282 1.61294C5.67919 1.92145 4.90498 2.36084 4.22192 2.91308C3.44763 3.55449 2.79548 4.31995 2.29458 5.17532C2.10521 5.48735 1.38897 6.73809 1.30161 8.77411C1.25223 9.92811 1.61361 11.1196 1.78561 11.6157C1.78543 11.6169 1.78543 11.6181 1.78561 11.6193C1.89413 11.9022 2.31791 12.9028 3.01191 13.7516C3.2135 13.9976 3.42963 14.2323 3.65924 14.4547C2.92357 13.967 2.26746 13.3774 1.71236 12.7052C1.02433 11.8664 0.600014 10.8762 0.489322 10.5839C0.489191 10.5818 0.489191 10.5797 0.489322 10.5777V10.574C0.316772 10.0784 -0.0456897 8.88644 0.00477284 7.73087C0.0921328 5.69486 0.808375 4.44516 0.997745 4.13209C1.4985 3.27662 2.15067 2.51114 2.92509 1.86984C3.608 1.31742 4.38225 0.878011 5.21598 0.569703C5.73602 0.362904 6.27777 0.210343 6.83187 0.114654C7.66692 -0.0250555 8.51979 -0.0371668 9.3588 0.0787703V1.04087C8.3808 1.05621 7.41484 1.25037 6.51282 1.61294Z" fill="var(--fill-0, #69C9D0)"/>
</svg>
