<svg preserveAspectRatio="none" width="100%" height="100%" overflow="visible" style="display: block;" viewBox="0 0 17 7" fill="none" xmlns="http://www.w3.org/2000/svg">
<path id="Vector" d="M2.25993 6.38838H2C1.05719 6.38838 0.585786 6.38838 0.292893 6.09549C0 5.8026 0 5.33119 0 4.38838V3.27645C0 2.75793 0 2.49868 0.133179 2.26715C0.266357 2.03563 0.467272 1.91878 0.869102 1.68507C3.51457 0.146438 7.27155 -0.719693 9.77906 0.775899C9.94754 0.876385 10.0991 0.997677 10.2285 1.14313C10.7866 1.77 10.746 2.71611 10.1028 3.2775C9.96693 3.39604 9.82215 3.48595 9.67636 3.5172C9.79617 3.50331 9.911 3.48739 10.0206 3.46991C10.932 3.32454 11.697 2.83751 12.3974 2.30843L14.2046 0.943259C14.8417 0.461989 15.7873 0.461896 16.4245 0.94304C16.9982 1.37619 17.1736 2.08941 16.8109 2.67074C16.388 3.34868 15.7921 4.21598 15.2199 4.74591C14.6469 5.27661 13.7939 5.7504 13.0975 6.08653C12.326 6.45888 11.4738 6.67343 10.6069 6.81375C8.84885 7.09834 7.01657 7.05491 5.27633 6.69638C4.29253 6.4937 3.27079 6.38838 2.25993 6.38838Z" fill="var(--fill-0, white)"/>
</svg>
