<svg preserveAspectRatio="none" width="100%" height="100%" overflow="visible" style="display: block;" viewBox="0 0 17.9167 17.2917" fill="none" xmlns="http://www.w3.org/2000/svg">
<path id="Vector" fill-rule="evenodd" clip-rule="evenodd" d="M11.4583 0H13.125C14.6963 0 15.482 0 15.9702 0.488155C16.4583 0.976311 16.4583 1.76198 16.4583 3.33333V16.0417H17.2917C17.6368 16.0417 17.9167 16.3215 17.9167 16.6667C17.9167 17.0118 17.6368 17.2917 17.2917 17.2917H0.625C0.279822 17.2917 0 17.0118 0 16.6667C0 16.3215 0.279822 16.0417 0.625 16.0417H1.45833V5.83333C1.45833 4.26198 1.45833 3.47631 1.94649 2.98816C2.43464 2.5 3.22032 2.5 4.79167 2.5H8.125C9.69635 2.5 10.482 2.5 10.9702 2.98816C11.4583 3.47631 11.4583 4.26198 11.4583 5.83333V16.0417H12.7083V5.83333L12.7083 5.75876C12.7084 5.0374 12.7085 4.37601 12.6362 3.83799C12.5565 3.24552 12.3691 2.61931 11.8541 2.10427C11.339 1.58923 10.7128 1.40182 10.1203 1.32217C9.5899 1.25085 8.93954 1.24992 8.23001 1.24999C8.30025 0.927288 8.41749 0.683822 8.61316 0.488155C9.10131 0 9.88698 0 11.4583 0ZM3.33333 5C3.33333 4.65482 3.61316 4.375 3.95833 4.375H8.95833C9.30351 4.375 9.58333 4.65482 9.58333 5C9.58333 5.34518 9.30351 5.625 8.95833 5.625H3.95833C3.61316 5.625 3.33333 5.34518 3.33333 5ZM3.33333 7.5C3.33333 7.15482 3.61316 6.875 3.95833 6.875H8.95833C9.30351 6.875 9.58333 7.15482 9.58333 7.5C9.58333 7.84518 9.30351 8.125 8.95833 8.125H3.95833C3.61316 8.125 3.33333 7.84518 3.33333 7.5ZM3.33333 10C3.33333 9.65482 3.61316 9.375 3.95833 9.375H8.95833C9.30351 9.375 9.58333 9.65482 9.58333 10C9.58333 10.3452 9.30351 10.625 8.95833 10.625H3.95833C3.61316 10.625 3.33333 10.3452 3.33333 10ZM6.45833 13.5417C6.80351 13.5417 7.08333 13.8215 7.08333 14.1667V16.0417H5.83333V14.1667C5.83333 13.8215 6.11316 13.5417 6.45833 13.5417Z" fill="var(--fill-0, white)"/>
</svg>
