<svg preserveAspectRatio="none" width="100%" height="100%" overflow="visible" style="display: block;" viewBox="0 0 146 108" fill="none" xmlns="http://www.w3.org/2000/svg">
<g id="Group">
<path id="Vector" d="M3.32026 5.16641L121.359 2.36848C121.359 2.36848 122.275 48.8011 120.954 48.788C119.634 48.775 0 50.0374 0 50.0374L3.32026 5.16641Z" fill="var(--fill-0, #FCD900)"/>
<path id="Vector_2" d="M1.39869 47.5387L4.35294 2.5767L122.771 0V0.247259C122.915 7.84721 123.569 45.8079 122.353 47.0182C122.288 47.0833 122.209 47.1223 122.131 47.1223C122.105 47.1223 122.078 47.1223 122.026 47.1223C117.895 47.1223 2.84967 47.5387 1.6732 47.5518H1.41176L1.39869 47.5387ZM4.81046 3.0582L1.93464 47.0442C8.16993 47.0182 117.948 46.6148 122.026 46.6148C122.81 44.7799 122.614 18.2711 122.288 0.494517L4.81046 3.0582Z" fill="var(--fill-0, #221F1F)"/>
<path id="Vector_3" d="M101.477 24.7259L101.569 14.0547L95.6601 14.0027L95.4248 40.6676L101.333 40.7196L101.438 28.8252L108.222 28.8902L108.118 40.7847L114.026 40.8367L114.261 14.1718L108.353 14.1198L108.261 24.7909L101.477 24.7259ZM74.6274 13.8205L74.5882 18.2451L81.1634 18.2971L80.9673 40.5374L86.8758 40.5895L87.0719 18.3492L93.6471 18.4013L93.6863 13.9766L74.6274 13.8074V13.8205ZM67.1111 13.7554L66.9542 32.2998C66.9281 35.2539 65.7386 36.8676 63.1503 36.8546C60.9935 36.8415 59.5163 35.5272 59.5425 32.2477L59.6993 13.7033L53.7908 13.6513L53.6209 32.5731C53.5817 37.5963 56.6797 40.7977 63.1765 40.8497C70.3791 40.9148 72.8105 36.7244 72.8366 32.7292L73.0065 13.8074L67.098 13.7554H67.1111ZM40.2091 40.6285C49.9608 40.7196 50.0131 33.9135 50.0784 26.9382C50.1438 19.8848 50.1961 13.1568 40.4575 13.0787C30.7059 12.9876 30.6536 19.7156 30.5882 26.769C30.5229 33.7573 30.4706 40.5504 40.2091 40.6285ZM40.2484 36.6463C36.915 36.6203 36.5098 33.6532 36.5752 26.8211C36.6405 19.9889 37.098 17.0348 40.4183 17.0609C43.7516 17.0869 44.1569 20.054 44.0915 26.8861C44.0261 33.7183 43.5686 36.6724 40.2484 36.6463ZM27.5425 32.8073C27.6209 24.4135 15.7124 24.7649 15.7516 19.7026C15.7647 17.8547 16.915 16.8656 18.8366 16.8787C21.2288 16.9047 21.5686 18.9348 21.5425 20.9259L27.2941 20.978C27.7386 15.4081 24.902 12.9485 19.1503 12.8965C11.9477 12.8314 9.80392 16.1369 9.76471 20.3143C9.69935 28.2526 21.5948 28.656 21.5556 33.458C21.5425 35.2669 20.549 36.4772 18.549 36.4642C15.2941 36.4381 15.2026 34.2909 15.2157 31.7402L9.30719 31.6882C8.95425 36.308 10.2876 40.3813 17.6078 40.4333C22.1176 40.4723 27.4771 39.7045 27.5425 32.8073Z" fill="var(--fill-0, white)"/>
<path id="Vector_4" d="M100.405 23.4115L100.497 12.7403L94.5882 12.6883L94.3529 39.3532L100.261 39.4052L100.366 27.5108L107.15 27.5759L107.046 39.4703L112.954 39.5224L113.19 12.8575L107.281 12.8054L107.19 23.4766L100.405 23.4115ZM73.5686 12.4931L73.5294 16.9177L80.1046 16.9698L79.9085 39.21L85.817 39.2621L86.0131 17.0218L92.5882 17.0739L92.6274 12.6492L73.5686 12.4801V12.4931ZM66.0392 12.428L65.8824 30.9724C65.8562 33.9265 64.6667 35.5402 62.0784 35.5272C59.9216 35.5142 58.4444 34.1998 58.4706 30.9204L58.6274 12.3759L52.719 12.3239L52.549 31.2457C52.5098 36.2689 55.6078 39.4703 62.1046 39.5224C69.3072 39.5874 71.7386 35.397 71.7647 31.4019L71.9346 12.4801L66.0261 12.428H66.0392ZM39.1373 39.3141C48.8889 39.4052 48.9412 32.5991 49.0065 25.6238C49.0719 18.5704 49.1242 11.8424 39.3856 11.7643C29.634 11.6732 29.5817 18.4013 29.5163 25.4546C29.451 32.4429 29.3987 39.2361 39.1373 39.3141ZM39.1765 35.332C35.8431 35.3059 35.4379 32.3388 35.5033 25.5067C35.5686 18.6745 36.0261 15.7204 39.3464 15.7465C42.6797 15.7725 43.085 18.7396 43.0196 25.5718C42.9542 32.4039 42.4967 35.358 39.1765 35.332ZM26.4837 31.4799C26.5621 23.0862 14.6536 23.4375 14.6928 18.3622C14.7059 16.5143 15.8562 15.5252 17.7778 15.5383C20.1699 15.5643 20.5098 17.5944 20.4837 19.5855L26.2353 19.6375C26.6797 14.0677 23.8431 11.6081 18.0915 11.5561C10.8889 11.491 8.7451 14.7965 8.70588 18.9739C8.62745 27.8622 20.5359 27.5238 20.4967 32.1176C20.4837 33.9265 19.4902 35.1368 17.4902 35.1238C14.2353 35.0977 14.1438 32.9505 14.1569 30.3998L8.24837 30.3478C7.89542 34.9676 9.22876 39.0409 16.549 39.0929C21.0588 39.1319 26.4183 38.3641 26.4837 31.4669" fill="var(--fill-0, #221F1F)"/>
<path id="Vector_5" d="M18.4837 44.0381L141.987 45.1052C141.987 45.1052 142.915 85.3303 141.647 85.3173C140.379 85.3173 16.0261 88.2844 16.0261 88.2844L18.4837 44.0251V44.0381Z" fill="var(--fill-0, #EB242A)"/>
<path id="Vector_6" d="M20.1948 85.5694L20.1822 86.1289L41.2487 86.6012L41.2614 86.0417L20.1948 85.5694Z" fill="var(--fill-0, #221F1F)"/>
<path id="Vector_7" d="M146 88.9351L105.02 88.0111V87.4515L145.425 88.3625C145.346 84.5755 144.588 50.7271 144.614 47.6949C140.654 46.6668 62.366 46.1853 20.7712 46.0812C20.7712 49.6079 20.6928 85.3303 20.6797 86.4104H20.1176C20.1176 85.2782 20.2092 46.1983 20.2092 45.7949V45.5216H20.4837C20.7974 45.5216 51.6078 45.6127 82.183 45.86C144.17 46.3675 144.797 47.0312 145.072 47.3175L145.15 47.4086V47.5518C145.085 48.9182 145.961 88.2453 145.974 88.6357V88.922L146 88.9351Z" fill="var(--fill-0, #221F1F)"/>
<path id="Vector_8" d="M135.686 80.281L135.726 76.1947L126.314 76.1166L126.379 68.3475L134.784 68.4256L134.824 64.3393L126.418 64.2612L126.471 57.7024L135.582 57.7805L135.621 53.6942L120.85 53.564L120.614 80.1509L135.686 80.281ZM116.784 80.1118L117.02 53.525L111.359 53.4729L111.124 80.0598L116.784 80.1118ZM108.065 72.7852C108.144 64.4174 96.732 64.7688 96.7843 59.7195C96.7974 57.8715 97.8954 56.8955 99.7386 56.9085C102.026 56.9346 102.353 58.9517 102.327 60.9428L107.83 60.9948C108.248 55.438 105.542 52.9914 100.026 52.9394C93.1242 52.8743 91.0719 56.1668 91.0327 60.3311C90.9673 68.2564 102.366 68.6468 102.314 73.4358C102.301 75.2447 101.346 76.455 99.4379 76.429C96.3268 76.4029 96.2353 74.2687 96.2484 71.718L90.5882 71.666C90.2484 76.2728 91.5294 80.32 98.5359 80.3851C102.85 80.4241 107.987 79.6563 108.052 72.7721M88.1569 72.616C88.2353 64.2482 76.8235 64.5996 76.8758 59.5503C76.8889 57.7024 77.9869 56.7264 79.8301 56.7394C82.1176 56.7654 82.4444 58.7825 82.4183 60.7736L87.9216 60.8256C88.3399 55.2688 85.634 52.8223 80.1176 52.7702C73.2157 52.7051 71.1634 55.9976 71.1242 60.1619C71.0588 68.0872 82.4575 68.4776 82.4052 73.2667C82.3922 75.0755 81.4379 76.2728 79.5294 76.2598C76.4183 76.2338 76.3268 74.0995 76.3399 71.5489L70.6797 71.4968C70.3399 76.1036 71.6209 80.1509 78.6275 80.2159C82.9412 80.255 88.0784 79.4872 88.1438 72.603M62.183 53.0565L62.0261 71.5489C62 74.4899 60.8627 76.1036 58.3791 76.0906C56.3137 76.0776 54.902 74.7762 54.9281 71.4968L55.085 53.0045L49.4248 52.9524L49.2549 71.8091C49.2157 76.8194 52.183 80.0077 58.4052 80.0598C65.3072 80.1248 67.634 75.9475 67.6601 71.9653L67.8301 53.1086L62.1699 53.0565H62.183ZM39.0065 69.4537L33.6078 69.4016L36.3007 57.9236H36.3791L39.0196 69.4407L39.0065 69.4537ZM30.8627 79.37L32.4575 73.4879L40.183 73.553L41.634 79.4611L47.5948 79.5132L40.4837 52.8613L33.0196 52.7962L25.281 79.318L30.8627 79.37Z" fill="var(--fill-0, #010101)"/>
<path id="Vector_9" d="M134.614 79.4351L134.654 75.3488L125.242 75.2708L125.307 67.5016L133.712 67.5797L133.752 63.4934L125.346 63.4154L125.399 56.8565L134.51 56.9346L134.549 52.8483L119.778 52.7182L119.542 79.305L134.614 79.4351ZM115.712 79.2789L115.948 52.6921L110.288 52.6401L110.052 79.2269L115.712 79.2789ZM107.007 71.9523C107.085 63.5845 95.6732 63.9359 95.7255 58.8866C95.7386 57.0387 96.8366 56.0627 98.6797 56.0757C100.967 56.1017 101.294 58.1188 101.268 60.1099L106.771 60.1619C107.19 54.6051 104.484 52.1586 98.9673 52.1065C92.0654 52.0415 90.0131 55.3339 89.9739 59.4983C89.9085 67.4235 101.307 67.814 101.255 72.603C101.242 74.4119 100.288 75.6221 98.3791 75.5961C95.268 75.5701 95.1765 73.4358 95.1895 70.8852L89.5294 70.8331C89.1895 75.4399 90.4706 79.4872 97.4771 79.5522C101.791 79.5913 106.928 78.8235 106.993 71.9393M87.085 71.7701C87.1634 63.4023 75.7516 63.7537 75.8039 58.7044C75.817 56.8565 76.915 55.8805 78.7582 55.8935C81.0458 55.9195 81.3725 57.9366 81.3464 59.9277L86.8497 59.9798C87.268 54.4229 84.5621 51.9764 79.0458 51.9243C72.1438 51.8593 70.0915 55.1517 70.0523 59.3161C69.9869 67.2414 81.3856 67.6318 81.3333 72.4208C81.3203 74.2297 80.366 75.4269 78.4575 75.4139C75.3464 75.3879 75.2549 73.2536 75.268 70.703L69.6078 70.6509C69.268 75.2577 70.549 79.305 77.5556 79.37C81.8693 79.4091 87.0065 78.6413 87.0719 71.7571M61.1242 52.2106L60.9673 70.703C60.9412 73.6441 59.8039 75.2577 57.3203 75.2447C55.2549 75.2317 53.8431 73.9304 53.8693 70.6509L54.0261 52.1586L48.366 52.1065L48.1961 70.9632C48.1569 75.9735 51.1242 79.1618 57.3464 79.2139C64.2484 79.2789 66.5752 75.1016 66.6013 71.1194L66.7712 52.2627L61.1111 52.2106H61.1242ZM37.9477 68.6208L32.549 68.5687L35.2418 57.0907H35.3203L37.9608 68.6078L37.9477 68.6208ZM29.8039 78.5242L31.3987 72.642L39.1242 72.7071L40.5752 78.6153L46.5359 78.6673L39.4248 52.0154L31.9608 51.9504L24.2222 78.4721L29.8039 78.5242Z" fill="var(--fill-0, white)"/>
<path id="Vector_10" d="M39.7124 84.3022L38.9804 99.9055L106.196 108L110.797 99.5412L102.418 85.5645L39.7124 84.3022Z" fill="var(--fill-0, #40C4F1)"/>
<path id="Vector_11" d="M109.02 106.204H108.902L40.6274 99.3329L41.3725 83.3002L102.719 83.6776L102.771 83.7556L112.588 99.7754L112.536 99.8665L109.02 106.191V106.204ZM41.0065 99.0206L108.837 105.84L112.196 99.8014L102.536 84.0289L41.7255 83.6515L41.0065 99.0206Z" fill="var(--fill-0, #221F1F)"/>
<path id="Vector_12" d="M100.288 88.87L100.144 90.6268L102.392 90.809L102.536 89.0522L100.288 88.87ZM102.275 92.4878L100.026 92.3056L99.3987 100.322L101.647 100.504L102.288 92.4878H102.275ZM92.2876 97.1857C91.9869 99.411 93.2549 100.01 95.2157 100.166C97.085 100.309 98.3137 99.359 98.4183 97.9535C98.6275 95.3768 94.6667 95.1295 94.7582 93.8672C94.7974 93.3206 95.098 93.0343 95.5948 93.0734C95.8301 93.0864 96.0261 93.1385 96.1569 93.2946C96.3007 93.4508 96.3399 93.7891 96.3007 94.3487L98.4967 94.5179C98.7582 92.8001 97.4379 91.9542 95.8954 91.8371C94.4444 91.72 92.6797 92.1104 92.549 93.8412C92.3529 96.3919 96.3268 96.3268 96.1961 98.0316C96.1569 98.5781 95.7516 98.8254 95.2941 98.7864C94.8497 98.7473 94.6144 98.6042 94.5098 98.3439C94.4183 98.0836 94.4314 97.7323 94.4706 97.3679L92.2745 97.1987L92.2876 97.1857ZM88.0131 99.6062C90.915 99.8275 91.4379 98.0966 91.634 95.598C91.8039 93.4117 91.634 91.5118 88.6667 91.2775C85.6993 91.0433 85.2288 92.8912 85.0588 95.0775C84.8627 97.5891 85.098 99.372 88 99.6062M88.1307 98.1747C87.2941 98.1097 87.1373 97.5631 87.3333 95.1295C87.464 93.4638 87.6078 92.6309 88.5752 92.696C89.5294 92.7741 89.5425 93.62 89.4118 95.2857C89.2157 97.7323 88.9673 98.2398 88.1438 98.1747M80.4183 99.0336C82.6667 99.2158 83.9739 98.3179 84.2091 95.2597L81.8301 95.0775C81.7255 95.9754 81.6601 97.4199 80.549 97.3288C79.1895 97.2247 79.1111 95.9364 79.3464 92.9953C79.5817 90.0542 79.8562 88.8049 81.2157 88.909C81.9346 88.9611 82.1569 89.5597 82.0392 91.0823L84.3922 91.2645C84.6797 88.8049 83.8039 87.3864 81.3464 87.1912C77.3725 86.8789 77.1503 89.7679 76.902 92.8001C76.6667 95.8062 76.4314 98.7213 80.4052 99.0336M71.9346 98.1747L72.4444 91.746C72.5359 90.6398 71.6471 89.9241 70.5752 89.846C70.1569 89.82 69.7909 89.846 69.451 89.9761C69.1373 90.0933 68.8497 90.3145 68.5882 90.6659H68.5621L68.902 86.4104L66.6536 86.2282L65.7516 97.6932L68 97.8754L68.4314 92.3446C68.4837 91.6289 68.6536 91.0823 69.3725 91.1344C70.0915 91.1864 70.1699 91.759 70.1176 92.4748L69.6863 98.0055L71.9346 98.1877V98.1747ZM61.3333 90.6659L62.2484 90.7309L61.8562 95.6631C61.817 96.1576 61.9739 97.459 63.9085 97.6151C64.4444 97.6542 64.7712 97.6412 65.085 97.6151L65.1895 96.2357C65.0719 96.2617 64.9281 96.2357 64.7843 96.2357C64.0523 96.1836 64.0915 95.7802 64.1438 95.1816L64.4837 90.8871L65.6471 90.9782L65.7516 89.5987L64.5882 89.5077L64.7712 87.2433L62.4444 88.0631L62.3399 89.3385L61.4248 89.2734L61.3203 90.6529L61.3333 90.6659ZM58.7712 85.6166L58.6274 87.3734L60.8758 87.5556L61.0196 85.7988L58.7712 85.6166ZM60.7582 89.2344L58.5098 89.0522L57.8693 97.0686L60.1176 97.2508L60.7451 89.2344H60.7582ZM46.9673 96.2227L49.3595 96.4049L51.4248 91.0563H51.451L52.4706 96.6521L54.8366 96.8343L57.6601 88.9871L55.5033 88.8179L53.817 94.7521H53.7909L52.8497 88.6097L50.5229 88.4275L48.4967 94.3357H48.4706L47.8431 88.2193L45.6078 88.0501L46.9804 96.2227H46.9673Z" fill="var(--fill-0, #221F1F)"/>
</g>
</svg>
