<svg preserveAspectRatio="none" width="100%" height="100%" overflow="visible" style="display: block;" viewBox="0 0 13.5683 15.5976" fill="none" xmlns="http://www.w3.org/2000/svg">
<path id="Vector" fill-rule="evenodd" clip-rule="evenodd" d="M11.55 2.06617C11.2481 1.45403 10.6072 1.084 9.92612 1.12864C9.8341 1.13468 9.72926 1.15439 9.54288 1.20062L9.20841 4.00499L11.5469 3.37839C11.6348 3.35485 11.687 3.34076 11.726 3.32887C11.7507 3.32134 11.7612 3.31727 11.7638 3.31625C11.8305 3.28266 11.871 3.21259 11.8667 3.13796C11.8663 3.13525 11.8646 3.12414 11.8588 3.09899C11.8496 3.05926 11.8356 3.00695 11.8121 2.91911C11.6698 2.38814 11.6173 2.20271 11.55 2.06617ZM8.03803 4.31859L8.37285 1.51127L4.83434 2.45941L4.49952 5.26673L8.03803 4.31859ZM3.32914 5.58033L3.66396 2.77304C3.05113 2.93747 2.61309 3.05766 2.27592 3.18157C1.92086 3.31206 1.7304 3.42883 1.5988 3.56043C1.38935 3.76989 1.23871 4.03079 1.16205 4.31692C1.11388 4.49668 1.10798 4.72001 1.1725 5.09274C1.21942 5.36378 1.29781 5.68494 1.40559 6.09574L3.32914 5.58033ZM0.443343 6.85486C0.273975 6.22269 0.137639 5.71008 0.0639904 5.28464C-0.0138981 4.83471 -0.0324891 4.42832 0.0753803 4.02575C0.203158 3.54887 0.454213 3.11403 0.803309 2.76494C1.09801 2.47023 1.45925 2.28314 1.88785 2.12563C2.30368 1.9728 2.83201 1.83125 3.48708 1.65573L4.07264 1.49883C4.13825 1.46626 4.21074 1.44623 4.2866 1.44149L8.76523 0.24145C8.77068 0.239989 8.77612 0.238532 8.78153 0.237081C8.84725 0.204462 8.91985 0.184426 8.99584 0.17973C9.3513 0.085231 9.61148 0.0218529 9.85254 0.00605261C10.9877 -0.0683467 12.0558 0.548356 12.5589 1.56859C12.6819 1.81797 12.763 2.12079 12.8819 2.56506C12.8874 2.58571 12.893 2.60667 12.8987 2.62794C12.9018 2.6395 12.905 2.65112 12.9081 2.66277C12.9436 2.79451 12.9806 2.9316 12.9892 3.0629C13.0239 3.59263 12.7361 4.0911 12.26 4.32589C12.142 4.38409 12.0048 4.42063 11.8729 4.45575C11.8613 4.45886 11.8496 4.46195 11.8381 4.46505L5.27879 6.22261L10.0448 6.22261C10.7187 6.22259 11.2806 6.22257 11.7267 6.28254C12.1975 6.34585 12.6226 6.4851 12.9643 6.8267C13.3059 7.16831 13.4451 7.59341 13.5084 8.06425C13.5684 8.51034 13.5684 9.07225 13.5683 9.74612V10.5763C13.5684 11.602 13.5684 12.4287 13.481 13.0789C13.3902 13.754 13.196 14.3224 12.7446 14.7738C12.2931 15.2253 11.7247 15.4195 11.0497 15.5102C10.3994 15.5976 9.57269 15.5976 8.547 15.5976H5.46469C4.439 15.5976 3.61226 15.5976 2.96203 15.5102C2.28695 15.4195 1.71854 15.2253 1.26711 14.7738C0.815668 14.3224 0.621498 13.754 0.530736 13.0789C0.443315 12.4287 0.443328 11.602 0.443343 10.5763L0.443343 6.85486ZM1.56834 7.34761V10.5351C1.56834 11.6117 1.56954 12.3625 1.6457 12.929C1.71969 13.4794 1.85503 13.7708 2.0626 13.9784C2.27017 14.1859 2.5616 14.3213 3.11193 14.3952C3.67845 14.4714 4.42928 14.4726 5.50584 14.4726H8.50584C9.58241 14.4726 10.3332 14.4714 10.8998 14.3952C11.4501 14.3213 11.7415 14.1859 11.9491 13.9784C12.1567 13.7708 12.292 13.4794 12.366 12.929C12.4421 12.3625 12.4433 11.6117 12.4433 10.5351V9.78511C12.4433 9.0621 12.4421 8.57643 12.3934 8.21415C12.3469 7.86806 12.2665 7.71994 12.1688 7.6222C12.071 7.52446 11.9229 7.44404 11.5768 7.39751C11.2145 7.3488 10.7289 7.34761 10.0058 7.34761H1.56834ZM7.90481 9.47042C7.91648 9.47878 7.92816 9.48717 7.93987 9.49556C7.95037 9.50309 7.96085 9.5106 7.9713 9.51809C8.24199 9.71207 8.49609 9.89418 8.67667 10.0716C8.87925 10.2707 9.06834 10.5391 9.06834 10.9101C9.06834 11.2812 8.87925 11.5495 8.67667 11.7486C8.49609 11.926 8.24198 12.1082 7.97129 12.3021L7.93987 12.3247C7.92816 12.3331 7.91647 12.3414 7.9048 12.3498C7.63344 12.5444 7.37475 12.73 7.15341 12.8392C6.91715 12.9557 6.52855 13.0801 6.15664 12.8176C5.83369 12.5896 5.7564 12.2214 5.72549 11.9637C5.69329 11.6952 5.69331 11.3447 5.69334 10.9451V10.8752C5.69331 10.4755 5.69329 10.125 5.72549 9.85654C5.7564 9.59886 5.83369 9.23063 6.15664 9.00266C6.52855 8.74013 6.91715 8.86448 7.15341 8.98103C7.37475 9.09023 7.63344 9.27578 7.90481 9.47042ZM6.83271 10.0942C6.81904 10.2814 6.81834 10.5388 6.81834 10.9101C6.81834 11.2814 6.81903 11.5388 6.8327 11.7261C6.94421 11.6534 7.08829 11.5509 7.28439 11.4103C7.59781 11.1856 7.77781 11.0546 7.88816 10.9462C7.9026 10.932 7.91394 10.92 7.92277 10.9101C7.91394 10.9002 7.9026 10.8882 7.88816 10.874C7.77781 10.7656 7.59782 10.6346 7.28439 10.4099C7.08829 10.2693 6.94421 10.1669 6.83271 10.0942Z" fill="var(--fill-0, #12A70A)"/>
</svg>
