<svg preserveAspectRatio="none" width="100%" height="100%" overflow="visible" style="display: block;" viewBox="0 0 16.125 14.0368" fill="none" xmlns="http://www.w3.org/2000/svg">
<path id="Vector (Stroke)" fill-rule="evenodd" clip-rule="evenodd" d="M3.28077 1.41744C2.03653 1.98619 1.125 3.33897 1.125 4.95212C1.125 6.60017 1.79941 7.87048 2.76621 8.95913C3.56304 9.85638 4.52763 10.6 5.46834 11.3253C5.69178 11.4975 5.91386 11.6687 6.13203 11.8407C6.52656 12.1517 6.87849 12.4247 7.21771 12.6229C7.55711 12.8212 7.8303 12.9118 8.0625 12.9118C8.2947 12.9118 8.56789 12.8212 8.90729 12.6229C9.24651 12.4247 9.59844 12.1517 9.99297 11.8407C10.2111 11.6687 10.4332 11.4975 10.6567 11.3253C11.5974 10.6 12.562 9.85638 13.3588 8.95913C14.3256 7.87048 15 6.60017 15 4.95212C15 3.33897 14.0885 1.98619 12.8442 1.41744C11.6354 0.864906 10.0113 1.01123 8.46777 2.61485C8.36173 2.72502 8.21541 2.78727 8.0625 2.78727C7.90959 2.78727 7.76327 2.72502 7.65723 2.61485C6.11375 1.01123 4.48955 0.864906 3.28077 1.41744ZM8.0625 1.44341C6.32846 -0.10802 4.38672 -0.325049 2.81307 0.39427C1.15103 1.15399 0 2.91807 0 4.95212C0 6.95127 0.832872 8.47634 1.92504 9.70615C2.79965 10.691 3.87017 11.5153 4.81562 12.2432C5.02994 12.4083 5.23783 12.5683 5.43556 12.7242C5.81974 13.0271 6.23216 13.35 6.65012 13.5942C7.06789 13.8384 7.5447 14.0368 8.0625 14.0368C8.5803 14.0368 9.05711 13.8384 9.47488 13.5942C9.89284 13.35 10.3053 13.0271 10.6894 12.7242C10.8872 12.5683 11.0951 12.4083 11.3094 12.2432C12.2548 11.5153 13.3253 10.691 14.2 9.70615C15.2921 8.47634 16.125 6.95127 16.125 4.95212C16.125 2.91807 14.974 1.15399 13.3119 0.39427C11.7383 -0.325049 9.79654 -0.10802 8.0625 1.44341Z" fill="var(--fill-0, #12A70A)"/>
</svg>
