<svg preserveAspectRatio="none" width="100%" height="100%" overflow="visible" style="display: block;" viewBox="0 0 21.5 21.5" fill="none" xmlns="http://www.w3.org/2000/svg">
<path id="Vector" fill-rule="evenodd" clip-rule="evenodd" d="M10.75 0C11.1642 0 11.5 0.335786 11.5 0.75V2.75C11.5 3.16421 11.1642 3.5 10.75 3.5C10.3358 3.5 10 3.16421 10 2.75V0.75C10 0.335786 10.3358 0 10.75 0ZM17.2804 4.21955C17.5733 4.51245 17.5733 4.98732 17.2804 5.28021L16.9372 5.62348C16.6443 5.91637 16.1694 5.91637 15.8765 5.62348C15.5836 5.33058 15.5836 4.85571 15.8765 4.56282L16.2198 4.21955C16.5127 3.92666 16.9876 3.92666 17.2804 4.21955ZM4.21967 4.21967C4.51256 3.92678 4.98744 3.92678 5.28033 4.21967L5.62359 4.56293C5.91648 4.85582 5.91648 5.3307 5.62359 5.62359C5.3307 5.91648 4.85582 5.91648 4.56293 5.62359L4.21967 5.28033C3.92678 4.98744 3.92678 4.51256 4.21967 4.21967ZM0 10.75C0 10.3358 0.335786 10 0.75 10H2.75C3.16421 10 3.5 10.3358 3.5 10.75C3.5 11.1642 3.16421 11.5 2.75 11.5H0.75C0.335786 11.5 0 11.1642 0 10.75ZM18 10.75C18 10.3358 18.3358 10 18.75 10H20.75C21.1642 10 21.5 10.3358 21.5 10.75C21.5 11.1642 21.1642 11.5 20.75 11.5H18.75C18.3358 11.5 18 11.1642 18 10.75ZM5.62348 15.8765C5.91637 16.1694 5.91637 16.6443 5.62348 16.9372L5.28043 17.2802C4.98754 17.5731 4.51266 17.5731 4.21977 17.2802C3.92688 16.9873 3.92688 16.5125 4.21977 16.2196L4.56282 15.8765C4.85571 15.5836 5.33058 15.5836 5.62348 15.8765ZM15.8765 15.8767C16.1694 15.5839 16.6443 15.5839 16.9372 15.8767L17.2802 16.2198C17.5731 16.5127 17.5731 16.9876 17.2802 17.2805C16.9873 17.5733 16.5124 17.5733 16.2195 17.2805L15.8765 16.9374C15.5836 16.6445 15.5836 16.1696 15.8765 15.8767ZM10.75 18C11.1642 18 11.5 18.3358 11.5 18.75V20.75C11.5 21.1642 11.1642 21.5 10.75 21.5C10.3358 21.5 10 21.1642 10 20.75V18.75C10 18.3358 10.3358 18 10.75 18Z" fill="var(--fill-0, white)"/>
</svg>
