<svg preserveAspectRatio="none" width="100%" height="100%" overflow="visible" style="display: block;" viewBox="0 0 13.125 16.125" fill="none" xmlns="http://www.w3.org/2000/svg">
<path id="Vector" fill-rule="evenodd" clip-rule="evenodd" d="M5.7735 8.40817e-07H7.3515C8.02536 -2.1198e-05 8.58727 -3.95738e-05 9.03336 0.0599351C9.50421 0.123239 9.92931 0.262492 10.2709 0.604094C10.6125 0.945696 10.7518 1.3708 10.8151 1.84164C10.875 2.28773 10.875 2.84964 10.875 3.52351L10.875 4.61579C12.2538 5.81882 13.125 7.58892 13.125 9.5625C13.125 13.1869 10.1869 16.125 6.5625 16.125C2.93813 16.125 0 13.1869 0 9.5625C0 7.58892 0.871198 5.81882 2.25 4.61579L2.25 3.5235C2.24998 2.84964 2.24996 2.28773 2.30993 1.84164C2.37324 1.3708 2.51249 0.945696 2.85409 0.604094C3.19569 0.262491 3.62079 0.123239 4.09164 0.0599351C4.53773 -3.95738e-05 5.09964 -2.1198e-05 5.7735 8.40817e-07ZM3.375 3.82474C4.31877 3.29932 5.40568 3 6.5625 3C7.71932 3 8.80623 3.29932 9.75 3.82474V3.5625C9.75 2.83949 9.74881 2.35382 9.7001 1.99155C9.65357 1.64545 9.57315 1.49733 9.47541 1.39959C9.37768 1.30185 9.22955 1.22143 8.88346 1.1749C8.52118 1.1262 8.03551 1.125 7.3125 1.125H5.8125C5.08949 1.125 4.60382 1.1262 4.24154 1.1749C3.89545 1.22143 3.74732 1.30185 3.64959 1.39959C3.55185 1.49733 3.47143 1.64545 3.4249 1.99155C3.37619 2.35382 3.375 2.83949 3.375 3.5625V3.82474ZM6.5625 4.125C3.55945 4.125 1.125 6.55945 1.125 9.5625C1.125 12.5655 3.55945 15 6.5625 15C9.56555 15 12 12.5655 12 9.5625C12 6.55945 9.56555 4.125 6.5625 4.125ZM6.5625 8.08837C6.5189 8.16385 6.47042 8.25077 6.41328 8.35327L6.33955 8.48554C6.33434 8.49487 6.32877 8.50507 6.32279 8.516C6.2639 8.6237 6.16636 8.80207 6.00373 8.92554C5.83769 9.05158 5.63797 9.09494 5.52119 9.1203C5.50949 9.12284 5.49862 9.1252 5.48871 9.12744L5.34553 9.15984C5.21415 9.18956 5.10713 9.21382 5.01562 9.23682C5.07515 9.31009 5.15246 9.40106 5.25302 9.51865L5.35063 9.63279C5.35756 9.64089 5.36509 9.64957 5.37311 9.65881C5.45406 9.75205 5.58476 9.9026 5.6452 10.097C5.70492 10.289 5.68432 10.4868 5.67132 10.6116C5.67003 10.6241 5.66881 10.6358 5.66775 10.6467L5.65299 10.799C5.63931 10.9402 5.62867 11.0529 5.62159 11.1445C5.69974 11.1101 5.78865 11.0692 5.89427 11.0206L6.02833 10.9588C6.03756 10.9546 6.04767 10.9498 6.05861 10.9447C6.16623 10.8939 6.3535 10.8056 6.5625 10.8056C6.7715 10.8056 6.95877 10.8939 7.0664 10.9447C7.07733 10.9498 7.08744 10.9546 7.09667 10.9588L7.23073 11.0206C7.33635 11.0692 7.42526 11.1101 7.50341 11.1445C7.49633 11.0529 7.48569 10.9402 7.47201 10.799L7.45725 10.6467C7.45619 10.6358 7.45497 10.6241 7.45368 10.6116C7.44068 10.4868 7.42008 10.289 7.4798 10.097C7.54024 9.90259 7.67095 9.75204 7.75189 9.6588C7.75991 9.64957 7.76744 9.64089 7.77437 9.63279L7.87198 9.51865C7.97254 9.40106 8.04985 9.31009 8.10938 9.23682C8.01787 9.21382 7.91085 9.18956 7.77947 9.15984L7.63629 9.12744C7.62638 9.1252 7.61551 9.12284 7.60381 9.1203C7.48703 9.09494 7.28731 9.05158 7.12127 8.92554C6.95864 8.80207 6.8611 8.6237 6.80221 8.51599C6.79623 8.50507 6.79066 8.49487 6.78545 8.48554L6.71172 8.35327C6.65458 8.25077 6.6061 8.16385 6.5625 8.08837ZM5.82262 7.16222C5.95175 6.99361 6.18623 6.75 6.5625 6.75C6.93877 6.75 7.17325 6.99361 7.30238 7.16222C7.42562 7.32316 7.54974 7.54593 7.67698 7.77433C7.68277 7.78471 7.68856 7.7951 7.69436 7.8055L7.76809 7.93777C7.78519 7.96845 7.79865 7.99258 7.81043 8.01322C7.83092 8.01804 7.85476 8.02344 7.88456 8.03018L8.02774 8.06258C8.03947 8.06523 8.0512 8.06788 8.06292 8.07053C8.30878 8.12609 8.55312 8.1813 8.74068 8.25521C8.94778 8.33683 9.22851 8.49578 9.33671 8.84371C9.443 9.18551 9.30887 9.47502 9.19173 9.6611C9.08332 9.83332 8.91855 10.0259 8.74986 10.2231C8.74224 10.232 8.73461 10.2409 8.72698 10.2498L8.62937 10.364C8.6035 10.3942 8.58401 10.417 8.56759 10.4367C8.56983 10.464 8.57289 10.4957 8.57701 10.5382L8.59176 10.6905C8.59289 10.7021 8.59402 10.7137 8.59514 10.7253C8.62077 10.9892 8.64555 11.2443 8.63646 11.4484C8.62692 11.6623 8.57558 11.9861 8.2852 12.2066C7.98565 12.434 7.65482 12.3844 7.44503 12.3243C7.25171 12.2689 7.0233 12.1637 6.79325 12.0577C6.78224 12.0526 6.77123 12.0475 6.76022 12.0425L6.62616 11.9807C6.60108 11.9692 6.58046 11.9597 6.5625 11.9516C6.54454 11.9597 6.52392 11.9692 6.49884 11.9807L6.36478 12.0425C6.35376 12.0475 6.34274 12.0526 6.33172 12.0577C6.10168 12.1637 5.87328 12.2689 5.67997 12.3243C5.47018 12.3844 5.13935 12.434 4.8398 12.2066C4.54942 11.9861 4.49807 11.6623 4.48854 11.4484C4.47945 11.2443 4.50423 10.9892 4.52986 10.7253C4.53098 10.7137 4.53211 10.7021 4.53324 10.6905L4.54799 10.5382C4.55211 10.4957 4.55517 10.464 4.55741 10.4367C4.54099 10.417 4.5215 10.3942 4.49563 10.364L4.39802 10.2498C4.39039 10.2409 4.38275 10.232 4.37513 10.2231C4.20644 10.0259 4.04168 9.83331 3.93327 9.6611C3.81613 9.47502 3.682 9.18551 3.78829 8.84371C3.89649 8.49578 4.17722 8.33683 4.38432 8.25521C4.57188 8.1813 4.81622 8.12609 5.06208 8.07053C5.0738 8.06788 5.08553 8.06523 5.09726 8.06258L5.24044 8.03018C5.27024 8.02344 5.29408 8.01804 5.31457 8.01322C5.32635 7.99258 5.33981 7.96845 5.35691 7.93777L5.43064 7.8055C5.43644 7.79511 5.44223 7.78471 5.44801 7.77433C5.57526 7.54594 5.69938 7.32316 5.82262 7.16222Z" fill="var(--fill-0, #12A70A)"/>
</svg>
