<svg preserveAspectRatio="none" width="100%" height="100%" overflow="visible" style="display: block;" viewBox="0 0 16.125 15.75" fill="none" xmlns="http://www.w3.org/2000/svg">
<g id="Union">
<path d="M11.8125 9.1875C12.2267 9.1875 12.5625 8.85171 12.5625 8.4375C12.5625 8.02329 12.2267 7.6875 11.8125 7.6875C11.3983 7.6875 11.0625 8.02329 11.0625 8.4375C11.0625 8.85171 11.3983 9.1875 11.8125 9.1875Z" fill="var(--fill-0, #12A70A)"/>
<path d="M11.8125 12.1875C12.2267 12.1875 12.5625 11.8517 12.5625 11.4375C12.5625 11.0233 12.2267 10.6875 11.8125 10.6875C11.3983 10.6875 11.0625 11.0233 11.0625 11.4375C11.0625 11.8517 11.3983 12.1875 11.8125 12.1875Z" fill="var(--fill-0, #12A70A)"/>
<path d="M8.8125 8.4375C8.8125 8.85171 8.47671 9.1875 8.0625 9.1875C7.64829 9.1875 7.3125 8.85171 7.3125 8.4375C7.3125 8.02329 7.64829 7.6875 8.0625 7.6875C8.47671 7.6875 8.8125 8.02329 8.8125 8.4375Z" fill="var(--fill-0, #12A70A)"/>
<path d="M8.8125 11.4375C8.8125 11.8517 8.47671 12.1875 8.0625 12.1875C7.64829 12.1875 7.3125 11.8517 7.3125 11.4375C7.3125 11.0233 7.64829 10.6875 8.0625 10.6875C8.47671 10.6875 8.8125 11.0233 8.8125 11.4375Z" fill="var(--fill-0, #12A70A)"/>
<path d="M4.3125 9.1875C4.72671 9.1875 5.0625 8.85171 5.0625 8.4375C5.0625 8.02329 4.72671 7.6875 4.3125 7.6875C3.89829 7.6875 3.5625 8.02329 3.5625 8.4375C3.5625 8.85171 3.89829 9.1875 4.3125 9.1875Z" fill="var(--fill-0, #12A70A)"/>
<path d="M4.3125 12.1875C4.72671 12.1875 5.0625 11.8517 5.0625 11.4375C5.0625 11.0233 4.72671 10.6875 4.3125 10.6875C3.89829 10.6875 3.5625 11.0233 3.5625 11.4375C3.5625 11.8517 3.89829 12.1875 4.3125 12.1875Z" fill="var(--fill-0, #12A70A)"/>
<path fill-rule="evenodd" clip-rule="evenodd" d="M4.3125 0C4.62316 0 4.875 0.25184 4.875 0.5625V1.13454C5.3715 1.12499 5.9185 1.12499 6.52009 1.125H9.60481C10.2064 1.12499 10.7535 1.12499 11.25 1.13454V0.5625C11.25 0.25184 11.5018 0 11.8125 0C12.1232 0 12.375 0.25184 12.375 0.5625V1.18282C12.57 1.19768 12.7546 1.21636 12.9293 1.23985C13.8086 1.35807 14.5203 1.60716 15.0816 2.16843C15.6428 2.7297 15.8919 3.44142 16.0101 4.32073C16.125 5.17514 16.125 6.26685 16.125 7.64516V9.22981C16.125 10.6081 16.125 11.6999 16.0101 12.5543C15.8919 13.4336 15.6428 14.1453 15.0816 14.7066C14.5203 15.2678 13.8086 15.5169 12.9293 15.6351C12.0749 15.75 10.9831 15.75 9.60484 15.75H6.52019C5.14189 15.75 4.05014 15.75 3.19573 15.6351C2.31642 15.5169 1.60471 15.2678 1.04343 14.7066C0.48216 14.1453 0.233072 13.4336 0.114851 12.5543C-2.08653e-05 11.6999 -1.15633e-05 10.6081 2.38468e-07 9.22981V7.64519C-1.15633e-05 6.26687 -2.08653e-05 5.17514 0.114851 4.32073C0.233072 3.44142 0.48216 2.7297 1.04343 2.16843C1.60471 1.60716 2.31642 1.35807 3.19573 1.23985C3.37043 1.21636 3.55504 1.19768 3.75 1.18282V0.5625C3.75 0.25184 4.00184 0 4.3125 0ZM3.34564 2.35482C2.59107 2.45627 2.15633 2.64652 1.83893 2.96393C1.52152 3.28133 1.33127 3.71607 1.22982 4.47064C1.21264 4.59843 1.19827 4.73296 1.18626 4.875H14.9387C14.9267 4.73296 14.9124 4.59843 14.8952 4.47064C14.7937 3.71607 14.6035 3.28133 14.2861 2.96393C13.9687 2.64652 13.5339 2.45627 12.7794 2.35482C12.0086 2.25119 10.9926 2.25 9.5625 2.25H6.5625C5.13239 2.25 4.11639 2.25119 3.34564 2.35482ZM1.125 7.6875C1.125 7.04699 1.12524 6.48955 1.13481 6H14.9902C14.9998 6.48955 15 7.04699 15 7.6875V9.1875C15 10.6176 14.9988 11.6336 14.8952 12.4044C14.7937 13.1589 14.6035 13.5937 14.2861 13.9111C13.9687 14.2285 13.5339 14.4187 12.7794 14.5202C12.0086 14.6238 10.9926 14.625 9.5625 14.625H6.5625C5.13239 14.625 4.11638 14.6238 3.34564 14.5202C2.59107 14.4187 2.15633 14.2285 1.83893 13.9111C1.52152 13.5937 1.33127 13.1589 1.22982 12.4044C1.1262 11.6336 1.125 10.6176 1.125 9.1875V7.6875Z" fill="var(--fill-0, #12A70A)"/>
</g>
</svg>
