<?xml version="1.0" encoding="UTF-8"?>
<svg id="Layer_2" data-name="Layer 2" xmlns="http://www.w3.org/2000/svg" viewBox="0 0 111.69 82.99">
  <defs>
    <style>
      .cls-1 {
        fill: #010101;
      }

      .cls-2 {
        fill: #eb242a;
      }

      .cls-3 {
        fill: #40c4f1;
      }

      .cls-4 {
        fill: #fff;
      }

      .cls-5 {
        fill: #221f1f;
      }

      .cls-6 {
        fill: #fcd900;
      }
    </style>
  </defs>
  <g id="Isolation_Mode" data-name="Isolation Mode">
    <g>
      <path class="cls-6" d="M2.54,3.97L92.84,1.82s.7,35.68-.31,35.67S0,38.45,0,38.45L2.54,3.97Z"/>
      <path class="cls-5" d="M1.07,36.53L3.33,1.98,93.92,0v.19c.11,5.84.61,35.01-.32,35.94-.05.05-.11.08-.17.08-.02,0-.04,0-.08,0-3.16,0-91.17.32-92.07.33h-.2ZM3.68,2.35L1.48,36.15c4.77-.02,88.75-.33,91.87-.33.6-1.41.45-21.78.2-35.44L3.68,2.35Z"/>
      <path class="cls-4" d="M77.63,19l.07-8.2-4.52-.04-.18,20.49,4.52.04.08-9.14,5.19.05-.08,9.14,4.52.04.18-20.49-4.52-.04-.07,8.2-5.19-.05ZM57.09,10.62l-.03,3.4,5.03.04-.15,17.09,4.52.04.15-17.09,5.03.04.03-3.4-14.58-.13ZM51.34,10.57l-.12,14.25c-.02,2.27-.93,3.51-2.91,3.5-1.65-.01-2.78-1.02-2.76-3.54l.12-14.25-4.52-.04-.13,14.54c-.03,3.86,2.34,6.32,7.31,6.36,5.51.05,7.37-3.17,7.39-6.24l.13-14.54-4.52-.04ZM30.76,31.22c7.46.07,7.5-5.16,7.55-10.52.05-5.42.09-10.59-7.36-10.65-7.46-.07-7.5,5.1-7.55,10.52-.05,5.37-.09,10.59,7.36,10.65M30.79,28.16c-2.55-.02-2.86-2.3-2.81-7.55.05-5.25.4-7.52,2.94-7.5,2.55.02,2.86,2.3,2.81,7.55-.05,5.25-.4,7.52-2.94,7.5M21.07,25.21c.06-6.45-9.05-6.18-9.02-10.07.01-1.42.89-2.18,2.36-2.17,1.83.02,2.09,1.58,2.07,3.11l4.4.04c.34-4.28-1.83-6.17-6.23-6.21-5.51-.05-7.15,2.49-7.18,5.7-.05,6.1,9.05,6.41,9.02,10.1-.01,1.39-.77,2.32-2.3,2.31-2.49-.02-2.56-1.67-2.55-3.63l-4.52-.04c-.27,3.55.75,6.68,6.35,6.72,3.45.03,7.55-.56,7.6-5.86"/>
      <path class="cls-5" d="M76.81,17.99l.07-8.2-4.52-.04-.18,20.49,4.52.04.08-9.14,5.19.05-.08,9.14,4.52.04.18-20.49-4.52-.04-.07,8.2-5.19-.05ZM56.28,9.6l-.03,3.4,5.03.04-.15,17.09,4.52.04.15-17.09,5.03.04.03-3.4-14.58-.13ZM50.52,9.55l-.12,14.25c-.02,2.27-.93,3.51-2.91,3.5-1.65-.01-2.78-1.02-2.76-3.54l.12-14.25-4.52-.04-.13,14.54c-.03,3.86,2.34,6.32,7.31,6.36,5.51.05,7.37-3.17,7.39-6.24l.13-14.54-4.52-.04ZM29.94,30.21c7.46.07,7.5-5.16,7.55-10.52.05-5.42.09-10.59-7.36-10.65-7.46-.07-7.5,5.1-7.55,10.52-.05,5.37-.09,10.59,7.36,10.65M29.97,27.15c-2.55-.02-2.86-2.3-2.81-7.55.05-5.25.4-7.52,2.94-7.5,2.55.02,2.86,2.3,2.81,7.55-.05,5.25-.4,7.52-2.94,7.5M20.26,24.19c.06-6.45-9.05-6.18-9.02-10.08.01-1.42.89-2.18,2.36-2.17,1.83.02,2.09,1.58,2.07,3.11l4.4.04c.34-4.28-1.83-6.17-6.23-6.21-5.51-.05-7.15,2.49-7.18,5.7-.06,6.83,9.05,6.57,9.02,10.1-.01,1.39-.77,2.32-2.3,2.31-2.49-.02-2.56-1.67-2.55-3.63l-4.52-.04c-.27,3.55.75,6.68,6.35,6.72,3.45.03,7.55-.56,7.6-5.86"/>
      <path class="cls-2" d="M14.14,33.84l94.48.82s.71,30.91-.26,30.9c-.97,0-96.1,2.28-96.1,2.28l1.88-34.01Z"/>
      <rect class="cls-5" x="23.28" y="58.09" width=".43" height="16.12" transform="translate(-43.16 88.15) rotate(-88.71)"/>
      <path class="cls-5" d="M111.69,68.34l-31.35-.71v-.43s30.91.7,30.91.7c-.06-2.91-.64-28.92-.62-31.25-3.03-.79-62.92-1.16-94.74-1.24,0,2.71-.06,30.16-.07,30.99h-.43c0-.87.07-30.9.07-31.21v-.21s.21,0,.21,0c.24,0,23.81.07,47.2.26,47.42.39,47.9.9,48.11,1.12l.06.07v.11c-.05,1.05.62,31.27.63,31.57v.22Z"/>
      <path class="cls-1" d="M103.8,61.69l.03-3.14-7.2-.06.05-5.97,6.43.06.03-3.14-6.43-.06.04-5.04,6.97.06.03-3.14-11.3-.1-.18,20.43,11.53.1ZM89.34,61.56l.18-20.43-4.33-.04-.18,20.43,4.33.04ZM82.67,55.93c.06-6.43-8.67-6.16-8.63-10.04.01-1.42.85-2.17,2.26-2.16,1.75.02,2,1.57,1.98,3.1l4.21.04c.32-4.27-1.75-6.15-5.97-6.19-5.28-.05-6.85,2.48-6.88,5.68-.05,6.09,8.67,6.39,8.63,10.07-.01,1.39-.74,2.32-2.2,2.3-2.38-.02-2.45-1.66-2.44-3.62l-4.33-.04c-.26,3.54.72,6.65,6.08,6.7,3.3.03,7.23-.56,7.28-5.85M67.44,55.8c.06-6.43-8.67-6.16-8.63-10.04.01-1.42.85-2.17,2.26-2.16,1.75.02,2,1.57,1.98,3.1l4.21.04c.32-4.27-1.75-6.15-5.97-6.19-5.28-.05-6.85,2.48-6.88,5.68-.05,6.09,8.67,6.39,8.63,10.07-.01,1.39-.74,2.31-2.2,2.3-2.38-.02-2.45-1.66-2.44-3.62l-4.33-.04c-.26,3.54.72,6.65,6.08,6.7,3.3.03,7.23-.56,7.28-5.85M47.57,40.77l-.12,14.21c-.02,2.26-.89,3.5-2.79,3.49-1.58-.01-2.66-1.01-2.64-3.53l.12-14.21-4.33-.04-.13,14.49c-.03,3.85,2.24,6.3,7,6.34,5.28.05,7.06-3.16,7.08-6.22l.13-14.49-4.33-.04ZM29.84,53.37l-4.13-.04,2.06-8.82h.06s2.02,8.85,2.02,8.85ZM23.61,60.99l1.22-4.52,5.91.05,1.11,4.54,4.56.04-5.44-20.48-5.71-.05-5.92,20.38,4.27.04Z"/>
      <path class="cls-4" d="M102.98,61.04l.03-3.14-7.2-.06.05-5.97,6.43.06.03-3.14-6.43-.06.04-5.04,6.97.06.03-3.14-11.3-.1-.18,20.43,11.53.1ZM88.52,60.92l.18-20.43-4.33-.04-.18,20.43,4.33.04ZM81.86,55.29c.06-6.43-8.67-6.16-8.63-10.04.01-1.42.85-2.17,2.26-2.16,1.75.02,2,1.57,1.98,3.1l4.21.04c.32-4.27-1.75-6.15-5.97-6.19-5.28-.05-6.85,2.48-6.88,5.68-.05,6.09,8.67,6.39,8.63,10.07-.01,1.39-.74,2.32-2.2,2.3-2.38-.02-2.45-1.66-2.44-3.62l-4.33-.04c-.26,3.54.72,6.65,6.08,6.7,3.3.03,7.23-.56,7.28-5.85M66.62,55.15c.06-6.43-8.67-6.16-8.63-10.04.01-1.42.85-2.17,2.26-2.16,1.75.02,2,1.57,1.98,3.1l4.21.04c.32-4.27-1.75-6.15-5.97-6.19-5.28-.05-6.85,2.48-6.88,5.68-.05,6.09,8.67,6.39,8.63,10.07-.01,1.39-.74,2.31-2.2,2.3-2.38-.02-2.45-1.66-2.44-3.62l-4.33-.04c-.26,3.54.72,6.65,6.08,6.7,3.3.03,7.23-.56,7.28-5.85M46.76,40.12l-.12,14.21c-.02,2.26-.89,3.5-2.79,3.49-1.58-.01-2.66-1.01-2.64-3.53l.12-14.21-4.33-.04-.13,14.49c-.03,3.85,2.24,6.3,7,6.34,5.28.05,7.06-3.16,7.08-6.22l.13-14.49-4.33-.04ZM29.03,52.73l-4.13-.04,2.06-8.82h.06s2.02,8.85,2.02,8.85ZM22.8,60.34l1.22-4.52,5.91.05,1.11,4.54,4.56.04-5.44-20.48-5.71-.05-5.92,20.38,4.27.04Z"/>
      <polygon class="cls-3" points="30.38 64.78 29.82 76.77 81.24 82.99 84.76 76.49 78.35 65.75 30.38 64.78"/>
      <path class="cls-5" d="M83.4,81.61h-.09s-52.23-5.28-52.23-5.28l.57-12.32,46.93.29.04.06,7.51,12.31-.04.07-2.69,4.86ZM31.37,76.09l51.89,5.24,2.57-4.64-7.39-12.12-46.52-.29-.55,11.81Z"/>
      <path class="cls-5" d="M76.72,68.29l-.11,1.35,1.72.14.11-1.35-1.72-.14ZM78.24,71.07l-1.72-.14-.48,6.16,1.72.14.49-6.16ZM70.6,74.68c-.23,1.71.74,2.17,2.24,2.29,1.43.11,2.37-.62,2.45-1.7.16-1.98-2.87-2.17-2.8-3.14.03-.42.26-.64.64-.61.18.01.33.05.43.17.11.12.14.38.11.81l1.68.13c.2-1.32-.81-1.97-1.99-2.06-1.11-.09-2.46.21-2.56,1.54-.15,1.96,2.89,1.91,2.79,3.22-.03.42-.34.61-.69.58-.34-.03-.52-.14-.6-.34-.07-.2-.06-.47-.03-.75l-1.68-.13ZM67.33,76.54c2.22.17,2.62-1.16,2.77-3.08.13-1.68,0-3.14-2.27-3.32-2.27-.18-2.63,1.24-2.76,2.92-.15,1.93.03,3.3,2.25,3.48M67.42,75.44c-.64-.05-.76-.47-.61-2.34.1-1.28.21-1.92.95-1.87.73.06.74.71.64,1.99-.15,1.88-.34,2.27-.97,2.22M61.52,76.1c1.72.14,2.72-.55,2.9-2.9l-1.82-.14c-.08.69-.13,1.8-.98,1.73-1.04-.08-1.1-1.07-.92-3.33.18-2.26.39-3.22,1.43-3.14.55.04.72.5.63,1.67l1.8.14c.22-1.89-.45-2.98-2.33-3.13-3.04-.24-3.21,1.98-3.4,4.31-.18,2.31-.36,4.55,2.68,4.79M55.03,75.44l.39-4.94c.07-.85-.61-1.4-1.43-1.46-.32-.02-.6,0-.86.1-.24.09-.46.26-.66.53h-.02s.26-3.27.26-3.27l-1.72-.14-.69,8.81,1.72.14.33-4.25c.04-.55.17-.97.72-.93s.61.48.57,1.03l-.33,4.25,1.72.14ZM46.92,69.67l.7.05-.3,3.79c-.03.38.09,1.38,1.57,1.5.41.03.66.02.9,0l.08-1.06c-.09.02-.2,0-.31,0-.56-.04-.53-.35-.49-.81l.26-3.3.89.07.08-1.06-.89-.07.14-1.74-1.78.63-.08.98-.7-.05-.08,1.06ZM44.96,65.79l-.11,1.35,1.72.14.11-1.35-1.72-.14ZM46.48,68.57l-1.72-.14-.49,6.16,1.72.14.48-6.16ZM35.93,73.94l1.83.14,1.58-4.11h.02s.78,4.3.78,4.3l1.81.14,2.16-6.03-1.65-.13-1.29,4.56h-.02s-.72-4.72-.72-4.72l-1.78-.14-1.55,4.54h-.02s-.48-4.7-.48-4.7l-1.71-.13,1.05,6.28Z"/>
    </g>
  </g>
</svg>